<svg xmlns="http://www.w3.org/2000/svg" xmlns:xlink="http://www.w3.org/1999/xlink" width="179" height="110" viewBox="0 0 179 110"><defs><style>.a{fill:#999;}.b{opacity:0.65;clip-path:url(#a);}.c{fill:#fff;}</style><clipPath id="a"><rect class="a" width="179" height="110" transform="translate(1110 1014)"/></clipPath></defs><g class="b" transform="translate(-1110 -1014)"><g transform="translate(1152.224 1039)"><g transform="translate(0 2.059)"><path d="M22.936,28.379H18.407a.959.959,0,0,1-1.03-.773l-.969-3.276H7.371L6.4,27.606a.96.96,0,0,1-1.031.773H.841c-.662,0-.994-.368-.773-1.031L7.875,3.376A1.033,1.033,0,0,1,8.943,2.6h5.892a1.033,1.033,0,0,1,1.068.774l7.806,23.972C23.93,28.011,23.6,28.379,22.936,28.379Zm-8.162-9.574L11.889,9.046,9,18.805Z" transform="translate(0 -2.602)"/><path d="M51.944,11.44a8.858,8.858,0,0,1-9.021,8.838H39.057v7.18a.835.835,0,0,1-.921.92h-4.05a.834.834,0,0,1-.92-.92V3.522a.834.834,0,0,1,.92-.92h8.838A8.858,8.858,0,0,1,51.944,11.44Zm-5.891,0a3.15,3.15,0,0,0-3.13-3.315H39.057v6.629h3.866A3.149,3.149,0,0,0,46.053,11.44Z" transform="translate(-6.918 -2.602)"/><path d="M75.158,2.6H79.21a.834.834,0,0,1,.92.92V27.459a.834.834,0,0,1-.92.92H76.447a1.281,1.281,0,0,1-1.141-.589l-8.8-13.772V27.459a.834.834,0,0,1-.92.92h-4.05a.835.835,0,0,1-.921-.92V3.522a.835.835,0,0,1,.921-.92H64.3a1.28,1.28,0,0,1,1.142.59l8.8,13.772V3.522A.835.835,0,0,1,75.158,2.6Z" transform="translate(-12.643 -2.602)"/><g transform="translate(0 29.848)"><path d="M26.315,53.568v12.4a.844.844,0,0,1-.931.931H21.662a.844.844,0,0,1-.931-.931V63.852c-1.757,2.337-4.461,3.563-7.928,3.563C5.545,67.415,0,61.534,0,53.867a13.208,13.208,0,0,1,13.549-13.55c5.917,0,10.943,3.648,12.468,8.413.224.633-.112,1.042-.781,1.042H20.843a1.137,1.137,0,0,1-1.079-.67,7.46,7.46,0,0,0-6.216-2.979c-4.616,0-7.594,3.09-7.594,7.743,0,5.025,3.2,8.114,7.594,8.114,2.8,0,5.594-1.168,6.651-4.132H14.591a.844.844,0,0,1-.931-.931v-3.35a.844.844,0,0,1,.931-.931H25.384A.844.844,0,0,1,26.315,53.568Z" transform="translate(0 -40.317)"/><path d="M37.716,58.991V41.906a.844.844,0,0,1,.931-.931h4.095a.844.844,0,0,1,.931.931V58.47c0,1.973.93,3.276,3.722,3.276s3.722-1.3,3.722-3.276V41.906a.844.844,0,0,1,.931-.931h4.094a.844.844,0,0,1,.931.931V58.991c0,5.583-4.317,8.561-9.677,8.561S37.716,64.574,37.716,58.991Z" transform="translate(-7.867 -40.454)"/><path d="M88.41,65.878c.484.6.223,1.154-.559,1.154H83.087a1.3,1.3,0,0,1-1.153-.558l-6.342-8H73.3V66.1a.843.843,0,0,1-.931.93H68.274a.843.843,0,0,1-.931-.93V41.907a.844.844,0,0,1,.931-.931h9.119a8.912,8.912,0,0,1,8.933,8.934,8.618,8.618,0,0,1-4.608,7.464l6.691,8.5ZM73.3,53.26h4.095a3.374,3.374,0,0,0,0-6.7H73.3Z" transform="translate(-14.047 -40.454)"/><path d="M95.794,58.991V41.906a.843.843,0,0,1,.93-.931h4.095a.844.844,0,0,1,.931.931V58.47c0,1.973.93,3.276,3.722,3.276s3.722-1.3,3.722-3.276V41.906a.844.844,0,0,1,.931-.931h4.095a.844.844,0,0,1,.931.931V58.991c0,5.583-4.319,8.561-9.678,8.561S95.794,64.574,95.794,58.991Z" transform="translate(-19.982 -40.454)"/></g><g transform="translate(71.494 0)"><rect width="23.673" height="6.823" rx="3.412"/><rect width="23.673" height="6.823" rx="3.412" transform="translate(0 9.431)"/><rect width="23.673" height="6.823" rx="3.412" transform="translate(0 18.954)"/></g></g><g transform="translate(79.773)"><path d="M104.786,29.683A3.854,3.854,0,0,1,101.72,28.3a2.623,2.623,0,0,1-.33-2.1L104.3.961A.515.515,0,0,1,104.816.5h.037l.482.461,2.923,25.309a2.565,2.565,0,0,1-.345,2.028,3.855,3.855,0,0,1-3.067,1.384l-.03,0Z" transform="translate(-100.903 -0.104)"/><path class="c" d="M104.712.791a.122.122,0,0,1,.125.112l2.923,25.309s.818,2.677-3.048,2.973c-3.866-.3-3.048-2.973-3.048-2.973L104.587.9a.122.122,0,0,1,.125-.112m0-.791a.916.916,0,0,0-.912.813l-2.916,25.25a2.983,2.983,0,0,0,.4,2.354,4.215,4.215,0,0,0,3.363,1.557l.061,0,.06,0a4.218,4.218,0,0,0,3.363-1.557,2.983,2.983,0,0,0,.4-2.354L105.623.812A.917.917,0,0,0,104.712,0Z" transform="translate(-100.799)"/></g></g></g></svg>