<svg xmlns="http://www.w3.org/2000/svg" width="163.727" height="101.293" viewBox="0 0 163.727 101.293"><defs><style>.a{opacity:0.87;}.b{fill-rule:evenodd;}</style></defs><g class="a"><g transform="translate(0 0)"><path class="b" d="M147.446,106.312V84.6H138.5v21.712h8.946Z" transform="translate(-9.438 -5.765)"/><path class="b" d="M95.062,97.394V85H86.4v9.5a15.422,15.422,0,0,1-.28,4.193c-.559,1.957-2.7,2.889-4.846,2.889-2.982,0-4.38-1.118-4.939-2.982a14.139,14.139,0,0,1-.28-1.957,19.414,19.414,0,0,1,0-2.33V85H67.2V97.394a8.122,8.122,0,0,0,2.516,6.337c2.609,2.609,7.082,3.355,11.182,3.355,5.032,0,8.853-.746,11.648-3.448a7.673,7.673,0,0,0,2.516-6.243Z" transform="translate(-4.579 -5.792)"/><path class="b" d="M49.2,95.2a4.952,4.952,0,0,0-1.3-.093H37.926c-.466,0-1.025.093-1.3.093a10.385,10.385,0,0,0,.839-.932L41.933,86.9c.559-1.025.839-1.677,1.025-1.957A9.863,9.863,0,0,0,43.983,86.9l4.566,7.455a2.029,2.029,0,0,0,.652.839Zm16.587,10.53L45.94,76H34.851l2.889,3.448c.093.093.186.093.28.186-.093.093-.186.093-.28.186L20.5,105.726H30.564l2.7-4.473a1.932,1.932,0,0,0,.186-.559,5.256,5.256,0,0,0,.652.093H52a3.3,3.3,0,0,0,.559-.093,1.013,1.013,0,0,0,.093.466l2.8,4.566H65.788Z" transform="translate(-1.397 -5.179)"/><path class="b" d="M133.42,94.544c0-2.423-1.025-5.218-4.1-9.132L121.865,76H111.521l5.871,6.616a20.083,20.083,0,0,0,2.236,2.05,9.529,9.529,0,0,0-4.659-1.118A20.751,20.751,0,0,0,105,85.971a9.9,9.9,0,0,0-5.5,8.853,10.327,10.327,0,0,0,3.168,7.268c4.007,4.007,11.182,4.38,13.791,4.38,3.914,0,10.064-.839,13.512-4.007a10.346,10.346,0,0,0,3.448-7.921Zm-8.666.28a5.65,5.65,0,0,1-3.355,4.939,10.475,10.475,0,0,1-4.939,1.025,12.3,12.3,0,0,1-5.032-1.118,5.626,5.626,0,0,1-3.261-4.752c0-2.33,1.771-4.193,4.007-5.218a9.646,9.646,0,0,1,4.193-.839,12.725,12.725,0,0,1,4.38.745c2.423,1.118,4.007,3.075,4.007,5.218Z" transform="translate(-6.78 -5.179)"/><path class="b" d="M135.119,0a28.526,28.526,0,0,0-17.705,6.15A28.993,28.993,0,0,0,99.615,0,28.525,28.525,0,0,0,81.91,6.15,28.993,28.993,0,0,0,64.112,0,28.525,28.525,0,0,0,46.406,6.15,28.993,28.993,0,0,0,28.608,0,28.608,28.608,0,1,0,46.313,51.066a28.829,28.829,0,0,0,35.6,0,28.694,28.694,0,0,0,35.5,0A28.6,28.6,0,1,0,135.119,0ZM41.654,46.406A22.078,22.078,0,1,1,28.608,6.523,21.887,21.887,0,0,1,41.654,10.81a28.237,28.237,0,0,0-6.15,17.8,28.792,28.792,0,0,0,6.15,17.8Zm4.752-4.659a22.28,22.28,0,0,1,0-26.278,22.28,22.28,0,0,1,0,26.278Zm30.751,4.659a22,22,0,0,1-26.092,0,28.829,28.829,0,0,0,0-35.6,22,22,0,0,1,26.092,0,28.237,28.237,0,0,0-6.15,17.8,28.792,28.792,0,0,0,6.15,17.8Zm4.752-4.659a22.28,22.28,0,0,1,0-26.278,22.28,22.28,0,0,1,0,26.278Zm30.751,4.659a22,22,0,0,1-26.092,0,28.829,28.829,0,0,0,0-35.6,22,22,0,0,1,26.092,0,28.237,28.237,0,0,0-6.15,17.8,28.792,28.792,0,0,0,6.15,17.8Zm4.752-4.659a22.28,22.28,0,0,1,0-26.278,22.28,22.28,0,0,1,0,26.278Zm17.705,8.946a21.887,21.887,0,0,1-13.046-4.287,28.829,28.829,0,0,0,0-35.6,22.078,22.078,0,1,1,13.046,39.883Z"/></g></g></svg>