<svg xmlns="http://www.w3.org/2000/svg" xmlns:xlink="http://www.w3.org/1999/xlink" width="179" height="110" viewBox="0 0 179 110"><defs><style>.a{stroke:#707070;}.b{opacity:0.65;clip-path:url(#a);}.c{font-size:18px;font-family:Roboto-Bold, Roboto;font-weight:700;}.d{font-size:11px;font-family:Roboto-Regular, Roboto;}</style><clipPath id="a"><rect class="a" width="179" height="110" transform="translate(1106 161)"/></clipPath></defs><g class="b" transform="translate(-1106 -161)"><g transform="translate(1.551 2)"><text class="c" transform="translate(1135 215)"><tspan x="0" y="0">BRAD KILLMEYER</tspan></text><text class="d" transform="translate(1136 227)"><tspan x="0" y="0">YOUTH SPEAKER, AUTHOR</tspan></text><g transform="translate(1106.449 185.022)"><path d="M26.167,24.049a2.106,2.106,0,0,0-.942-.686,2.571,2.571,0,0,1-.079.91L20.357,40.026a1.148,1.148,0,0,1-.559.662,1.771,1.771,0,0,1-.894.248H4.173q-1.915,0-2.3-1.117a.728.728,0,0,1,.016-.686.7.7,0,0,1,.607-.24h13.87a2.941,2.941,0,0,0,2.051-.551,6.233,6.233,0,0,0,1.141-2.45l4.373-14.46a2.276,2.276,0,0,0-.287-2.075,2.1,2.1,0,0,0-1.82-.894H9.68a4.437,4.437,0,0,0-.814.144l.016-.048a3.331,3.331,0,0,0-.758-.088,1.067,1.067,0,0,0-.575.184,1.848,1.848,0,0,0-.423.375,2.748,2.748,0,0,0-.311.511q-.151.312-.255.575t-.239.559a3.6,3.6,0,0,1-.263.487q-.1.128-.271.335t-.287.367a.9.9,0,0,0-.144.287,1.04,1.04,0,0,0,.032.423,1.316,1.316,0,0,1,.048.407A6.052,6.052,0,0,1,5,24.52a6.579,6.579,0,0,1-.678,1.349q-.064.08-.351.359a1.277,1.277,0,0,0-.351.487q-.064.08-.008.447a2.3,2.3,0,0,1,.04.511,6.539,6.539,0,0,1-.4,1.437,9.764,9.764,0,0,1-.67,1.468,2.617,2.617,0,0,1-.271.367,1.342,1.342,0,0,0-.271.447,1.407,1.407,0,0,0,.008.447,1.248,1.248,0,0,1-.008.479,8.663,8.663,0,0,1-.479,1.46,10.656,10.656,0,0,1-.718,1.46,3.841,3.841,0,0,1-.263.375,3.9,3.9,0,0,0-.263.375.993.993,0,0,0-.128.335.793.793,0,0,0,.048.311.885.885,0,0,1,.048.343q-.016.223-.064.591T.168,38A2.9,2.9,0,0,0,.2,40.026a4.485,4.485,0,0,0,1.588,2.1,3.906,3.906,0,0,0,2.37.854H18.889a3.186,3.186,0,0,0,1.955-.694,3.294,3.294,0,0,0,1.221-1.716l4.389-14.46A2.257,2.257,0,0,0,26.167,24.049Zm-16.982.032.335-1.022a.712.712,0,0,1,.263-.359.669.669,0,0,1,.407-.152h9.7a.348.348,0,0,1,.319.152.416.416,0,0,1,.032.359l-.336,1.022a.713.713,0,0,1-.263.359.668.668,0,0,1-.407.151h-9.7a.348.348,0,0,1-.319-.151A.416.416,0,0,1,9.185,24.081ZM7.86,28.167,8.2,27.145a.713.713,0,0,1,.263-.359.667.667,0,0,1,.407-.152h9.7a.348.348,0,0,1,.319.152.416.416,0,0,1,.032.359l-.335,1.021a.712.712,0,0,1-.263.359.668.668,0,0,1-.407.152h-9.7a.348.348,0,0,1-.319-.152A.415.415,0,0,1,7.86,28.167Z" transform="translate(0)"/></g></g></g></svg>