<?xml version="1.0" encoding="utf-8"?>
<!-- Generator: Adobe Illustrator 22.0.0, SVG Export Plug-In . SVG Version: 6.00 Build 0)  -->
<svg version="1.1" id="Capa_1" xmlns="http://www.w3.org/2000/svg" xmlns:xlink="http://www.w3.org/1999/xlink" x="0px" y="0px"
	 viewBox="0 0 126 49.4" style="enable-background:new 0 0 126 49.4;" xml:space="preserve">
<style type="text/css">
	.st0{fill:#FFFFFF;}
	.st1{fill:#EB3B2E;}
	.st2{fill:#222127;}
</style>
<rect x="-825.6" y="-81.9" class="st0" width="600" height="200"/>
<rect x="-825.6" y="118.1" class="st1" width="600" height="200"/>
<rect x="-825.6" y="318.1" class="st2" width="600" height="200"/>
<g>
	<g>
		<path class="st0" d="M-531.1,247.5c-0.1-0.2,0.1-0.3,0.2-0.3h1.2c0.1,0,0.2,0.1,0.2,0.2l1.4,5.2h0.1l2.1-5.4
			c0-0.1,0.1-0.1,0.2-0.1h0.2c0.1,0,0.2,0.1,0.2,0.1l2.1,5.4h0.1l1.3-5.2c0-0.1,0.1-0.2,0.2-0.2h1.2c0.2,0,0.3,0.1,0.2,0.3l-2.5,8.7
			c0,0.1-0.1,0.2-0.2,0.2h-0.2c-0.1,0-0.2-0.1-0.2-0.1l-2.3-5.9h-0.1l-2.3,5.9c0,0.1-0.1,0.1-0.2,0.1h-0.2c-0.1,0-0.2-0.1-0.2-0.2
			L-531.1,247.5z"/>
		<path class="st0" d="M-518,247.5c0-0.1,0.1-0.2,0.2-0.2h5.3c0.1,0,0.2,0.1,0.2,0.2v1.1c0,0.1-0.1,0.2-0.2,0.2h-3.8v2.1h3.2
			c0.1,0,0.2,0.1,0.2,0.2v1.1c0,0.1-0.1,0.2-0.2,0.2h-3.2v2.3h3.8c0.1,0,0.2,0.1,0.2,0.2v1.1c0,0.1-0.1,0.2-0.2,0.2h-5.3
			c-0.1,0-0.2-0.1-0.2-0.2V247.5z"/>
		<path class="st0" d="M-509.8,247.5c0-0.1,0.1-0.2,0.2-0.2h3c1.5,0,2.7,1,2.7,2.4c0,1-0.8,1.8-1.4,2.1c0.7,0.2,1.7,0.9,1.7,2.1
			c0,1.5-1.2,2.5-2.8,2.5h-3.1c-0.1,0-0.2-0.1-0.2-0.2V247.5z M-506.7,251.1c0.7,0,1.1-0.5,1.1-1.2s-0.5-1.1-1.1-1.1h-1.4v2.3
			H-506.7z M-506.5,254.8c0.6,0,1.2-0.5,1.2-1.2c0-0.6-0.7-1.1-1.3-1.1h-1.4v2.3H-506.5z"/>
		<path class="st0" d="M-496.3,248.8h-2c-0.1,0-0.2-0.1-0.2-0.2v-1.1c0-0.1,0.1-0.2,0.2-0.2h5.7c0.1,0,0.2,0.1,0.2,0.2v1.1
			c0,0.1-0.1,0.2-0.2,0.2h-2v7.3c0,0.1-0.1,0.2-0.2,0.2h-1.2c-0.1,0-0.2-0.1-0.2-0.2V248.8z"/>
		<path class="st0" d="M-490.4,247.5c0-0.1,0.1-0.2,0.2-0.2h5.3c0.1,0,0.2,0.1,0.2,0.2v1.1c0,0.1-0.1,0.2-0.2,0.2h-3.8v2.1h3.2
			c0.1,0,0.2,0.1,0.2,0.2v1.1c0,0.1-0.1,0.2-0.2,0.2h-3.2v2.3h3.8c0.1,0,0.2,0.1,0.2,0.2v1.1c0,0.1-0.1,0.2-0.2,0.2h-5.3
			c-0.1,0-0.2-0.1-0.2-0.2V247.5z"/>
		<path class="st0" d="M-478.1,247.1c1.3,0,2.3,0.4,3.1,1.2c0.1,0.1,0.1,0.3,0,0.4l-0.8,0.8c-0.1,0.1-0.2,0.1-0.3,0
			c-0.5-0.5-1.3-0.8-2-0.8c-1.7,0-2.9,1.4-2.9,3c0,1.6,1.2,3,2.9,3c0.8,0,1.4-0.3,2-0.7c0.1-0.1,0.2-0.1,0.3,0l0.8,0.8
			c0.1,0.1,0.1,0.3,0,0.4c-0.9,0.9-2,1.3-3.2,1.3c-2.6,0-4.7-2.1-4.7-4.7S-480.7,247.1-478.1,247.1z"/>
		<path class="st0" d="M-472.6,247.5c0-0.1,0.1-0.2,0.2-0.2h1.2c0.1,0,0.2,0.1,0.2,0.2v3.4h4.2v-3.4c0-0.1,0.1-0.2,0.2-0.2h1.2
			c0.1,0,0.2,0.1,0.2,0.2v8.6c0,0.1-0.1,0.2-0.2,0.2h-1.2c-0.1,0-0.2-0.1-0.2-0.2v-3.6h-4.2v3.6c0,0.1-0.1,0.2-0.2,0.2h-1.2
			c-0.1,0-0.2-0.1-0.2-0.2V247.5z"/>
		<path class="st0" d="M-462,247.3c0-0.1,0.1-0.2,0.2-0.2h0.3l5.4,5.7h0v-5.4c0-0.1,0.1-0.2,0.2-0.2h1.2c0.1,0,0.2,0.1,0.2,0.2v8.7
			c0,0.1-0.1,0.2-0.2,0.2h-0.3l-5.4-6h0v5.6c0,0.1-0.1,0.2-0.2,0.2h-1.2c-0.1,0-0.2-0.1-0.2-0.2V247.3z"/>
		<path class="st0" d="M-447.2,247.1c2.6,0,4.7,2.1,4.7,4.7s-2.1,4.7-4.7,4.7s-4.7-2.1-4.7-4.7S-449.8,247.1-447.2,247.1z
			 M-447.2,254.8c1.6,0,3-1.3,3-3s-1.4-3-3-3s-3,1.4-3,3S-448.9,254.8-447.2,254.8z"/>
		<path class="st0" d="M-440.2,247.5c0-0.1,0.1-0.2,0.2-0.2h1.2c0.1,0,0.2,0.1,0.2,0.2v7.3h3.3c0.1,0,0.2,0.1,0.2,0.2v1.1
			c0,0.1-0.1,0.2-0.2,0.2h-4.8c-0.1,0-0.2-0.1-0.2-0.2V247.5z"/>
		<path class="st0" d="M-429.1,247.1c2.6,0,4.7,2.1,4.7,4.7s-2.1,4.7-4.7,4.7s-4.7-2.1-4.7-4.7S-431.7,247.1-429.1,247.1z
			 M-429.1,254.8c1.6,0,3-1.3,3-3s-1.4-3-3-3s-3,1.4-3,3S-430.7,254.8-429.1,254.8z"/>
		<path class="st0" d="M-418,247.1c1.2,0,2.3,0.5,3.2,1.2c0.1,0.1,0.1,0.3,0,0.4l-0.8,0.8c-0.1,0.1-0.2,0.1-0.3,0
			c-0.6-0.5-1.2-0.8-2-0.8c-1.6,0-2.9,1.4-2.9,3c0,1.6,1.3,3,2.9,3c0.7,0,1.3-0.2,1.5-0.3v-1.1h-1c-0.1,0-0.2-0.1-0.2-0.2v-1
			c0-0.1,0.1-0.2,0.2-0.2h2.5c0.1,0,0.2,0.1,0.2,0.2v3.3c0,0.1-0.1,0.2-0.1,0.2c0,0-1.3,0.8-3.2,0.8c-2.6,0-4.7-2.1-4.7-4.7
			S-420.6,247.1-418,247.1z"/>
		<path class="st0" d="M-412.1,247.5c0-0.1,0.1-0.2,0.2-0.2h1.2c0.1,0,0.2,0.1,0.2,0.2v8.6c0,0.1-0.1,0.2-0.2,0.2h-1.2
			c-0.1,0-0.2-0.1-0.2-0.2V247.5z"/>
		<path class="st0" d="M-407.4,247.5c0-0.1,0.1-0.2,0.2-0.2h5.3c0.1,0,0.2,0.1,0.2,0.2v1.1c0,0.1-0.1,0.2-0.2,0.2h-3.8v2.1h3.2
			c0.1,0,0.2,0.1,0.2,0.2v1.1c0,0.1-0.1,0.2-0.2,0.2h-3.2v2.3h3.8c0.1,0,0.2,0.1,0.2,0.2v1.1c0,0.1-0.1,0.2-0.2,0.2h-5.3
			c-0.1,0-0.2-0.1-0.2-0.2V247.5z"/>
		<path class="st0" d="M-399.6,255.1l0.5-0.8c0.1-0.2,0.3-0.2,0.4-0.1c0.1,0,1.1,0.8,2,0.8c0.7,0,1.2-0.4,1.2-1
			c0-0.7-0.6-1.1-1.7-1.6c-1.2-0.5-2.4-1.3-2.4-2.8c0-1.2,0.9-2.5,2.9-2.5c1.3,0,2.3,0.7,2.6,0.9c0.1,0.1,0.2,0.3,0.1,0.4l-0.5,0.7
			c-0.1,0.2-0.3,0.3-0.5,0.2c-0.1-0.1-1.1-0.7-1.8-0.7c-0.7,0-1.1,0.5-1.1,0.9c0,0.6,0.5,1,1.5,1.5c1.3,0.5,2.7,1.3,2.7,2.9
			c0,1.3-1.2,2.6-3,2.6c-1.6,0-2.6-0.8-2.9-1C-399.7,255.3-399.8,255.3-399.6,255.1z"/>
	</g>
	<g>
		<path class="st0" d="M-572.4,201.3c-9.5,0-16.8,6.9-16.8,17.6c0,9.9,7.2,17.6,17.8,17.6c8,0,13-4.8,13-4.8l-2.7-4.7
			c0,0-4.2,3.9-9.9,3.9c-6,0-11.2-3.7-11.5-11.1h24.5c0,0,0.2-1.9,0.2-2.8C-557.9,208.3-562.9,201.3-572.4,201.3z M-582.4,214.9
			c0.9-5.5,4.9-8.6,9.8-8.6c4.3,0,7.9,2.8,8.1,8.6H-582.4z"/>
		<rect x="-550.5" y="179.8" class="st0" width="6.4" height="76.6"/>
		<rect x="-532.5" y="193.1" class="st0" width="6.4" height="43.5"/>
		<path class="st0" d="M-508.2,223.2v-14.9h8.1v-5.2h-8.1v-9.7h-6.2v9.7h-4.6v5.2h4.4v15.6c0,11.2,8.5,12.5,12.9,12.5
			c1.3,0,2.3-0.1,2.3-0.1v-5.7c0,0-0.6,0.1-1.5,0.1C-503.5,230.7-508.2,229.9-508.2,223.2z"/>
		<path class="st0" d="M-463.3,217c0-8.7-5-15.7-14.5-15.7c-9.5,0-16.8,6.9-16.8,17.6c0,9.9,7.2,17.6,17.8,17.6c8,0,13-4.8,13-4.8
			l-2.7-4.7c0,0-4.2,3.9-9.9,3.9c-6,0-11.2-3.7-11.5-11.1h24.5C-463.5,219.8-463.3,217.9-463.3,217z M-487.8,214.9
			c0.9-5.5,4.9-8.6,9.8-8.6c4.3,0,7.9,2.8,8.1,8.6H-487.8z"/>
		<circle class="st0" cx="-529.3" cy="183.1" r="3.3"/>
	</g>
</g>
<g>
	<path class="st0" d="M-531.1,447.5c-0.1-0.2,0.1-0.3,0.2-0.3h1.2c0.1,0,0.2,0.1,0.2,0.2l1.4,5.2h0.1l2.1-5.4c0-0.1,0.1-0.1,0.2-0.1
		h0.2c0.1,0,0.2,0.1,0.2,0.1l2.1,5.4h0.1l1.3-5.2c0-0.1,0.1-0.2,0.2-0.2h1.2c0.2,0,0.3,0.1,0.2,0.3l-2.5,8.7c0,0.1-0.1,0.2-0.2,0.2
		h-0.2c-0.1,0-0.2-0.1-0.2-0.1l-2.3-5.9h-0.1l-2.3,5.9c0,0.1-0.1,0.1-0.2,0.1h-0.2c-0.1,0-0.2-0.1-0.2-0.2L-531.1,447.5z"/>
	<path class="st0" d="M-518,447.5c0-0.1,0.1-0.2,0.2-0.2h5.3c0.1,0,0.2,0.1,0.2,0.2v1.1c0,0.1-0.1,0.2-0.2,0.2h-3.8v2.1h3.2
		c0.1,0,0.2,0.1,0.2,0.2v1.1c0,0.1-0.1,0.2-0.2,0.2h-3.2v2.3h3.8c0.1,0,0.2,0.1,0.2,0.2v1.1c0,0.1-0.1,0.2-0.2,0.2h-5.3
		c-0.1,0-0.2-0.1-0.2-0.2V447.5z"/>
	<path class="st0" d="M-509.8,447.5c0-0.1,0.1-0.2,0.2-0.2h3c1.5,0,2.7,1,2.7,2.4c0,1-0.8,1.8-1.4,2.1c0.7,0.2,1.7,0.9,1.7,2.1
		c0,1.5-1.2,2.5-2.8,2.5h-3.1c-0.1,0-0.2-0.1-0.2-0.2V447.5z M-506.7,451.1c0.7,0,1.1-0.5,1.1-1.2s-0.5-1.1-1.1-1.1h-1.4v2.3H-506.7
		z M-506.5,454.8c0.6,0,1.2-0.5,1.2-1.2c0-0.6-0.7-1.1-1.3-1.1h-1.4v2.3H-506.5z"/>
	<path class="st0" d="M-496.3,448.8h-2c-0.1,0-0.2-0.1-0.2-0.2v-1.1c0-0.1,0.1-0.2,0.2-0.2h5.7c0.1,0,0.2,0.1,0.2,0.2v1.1
		c0,0.1-0.1,0.2-0.2,0.2h-2v7.3c0,0.1-0.1,0.2-0.2,0.2h-1.2c-0.1,0-0.2-0.1-0.2-0.2V448.8z"/>
	<path class="st0" d="M-490.4,447.5c0-0.1,0.1-0.2,0.2-0.2h5.3c0.1,0,0.2,0.1,0.2,0.2v1.1c0,0.1-0.1,0.2-0.2,0.2h-3.8v2.1h3.2
		c0.1,0,0.2,0.1,0.2,0.2v1.1c0,0.1-0.1,0.2-0.2,0.2h-3.2v2.3h3.8c0.1,0,0.2,0.1,0.2,0.2v1.1c0,0.1-0.1,0.2-0.2,0.2h-5.3
		c-0.1,0-0.2-0.1-0.2-0.2V447.5z"/>
	<path class="st0" d="M-478.1,447.1c1.3,0,2.3,0.4,3.1,1.2c0.1,0.1,0.1,0.3,0,0.4l-0.8,0.8c-0.1,0.1-0.2,0.1-0.3,0
		c-0.5-0.5-1.3-0.8-2-0.8c-1.7,0-2.9,1.4-2.9,3c0,1.6,1.2,3,2.9,3c0.8,0,1.4-0.3,2-0.7c0.1-0.1,0.2-0.1,0.3,0l0.8,0.8
		c0.1,0.1,0.1,0.3,0,0.4c-0.9,0.9-2,1.3-3.2,1.3c-2.6,0-4.7-2.1-4.7-4.7S-480.7,447.1-478.1,447.1z"/>
	<path class="st0" d="M-472.6,447.5c0-0.1,0.1-0.2,0.2-0.2h1.2c0.1,0,0.2,0.1,0.2,0.2v3.4h4.2v-3.4c0-0.1,0.1-0.2,0.2-0.2h1.2
		c0.1,0,0.2,0.1,0.2,0.2v8.6c0,0.1-0.1,0.2-0.2,0.2h-1.2c-0.1,0-0.2-0.1-0.2-0.2v-3.6h-4.2v3.6c0,0.1-0.1,0.2-0.2,0.2h-1.2
		c-0.1,0-0.2-0.1-0.2-0.2V447.5z"/>
	<path class="st0" d="M-462,447.3c0-0.1,0.1-0.2,0.2-0.2h0.3l5.4,5.7h0v-5.4c0-0.1,0.1-0.2,0.2-0.2h1.2c0.1,0,0.2,0.1,0.2,0.2v8.7
		c0,0.1-0.1,0.2-0.2,0.2h-0.3l-5.4-6h0v5.6c0,0.1-0.1,0.2-0.2,0.2h-1.2c-0.1,0-0.2-0.1-0.2-0.2V447.3z"/>
	<path class="st0" d="M-447.2,447.1c2.6,0,4.7,2.1,4.7,4.7s-2.1,4.7-4.7,4.7s-4.7-2.1-4.7-4.7S-449.8,447.1-447.2,447.1z
		 M-447.2,454.8c1.6,0,3-1.3,3-3s-1.4-3-3-3s-3,1.4-3,3S-448.9,454.8-447.2,454.8z"/>
	<path class="st0" d="M-440.2,447.5c0-0.1,0.1-0.2,0.2-0.2h1.2c0.1,0,0.2,0.1,0.2,0.2v7.3h3.3c0.1,0,0.2,0.1,0.2,0.2v1.1
		c0,0.1-0.1,0.2-0.2,0.2h-4.8c-0.1,0-0.2-0.1-0.2-0.2V447.5z"/>
	<path class="st0" d="M-429.1,447.1c2.6,0,4.7,2.1,4.7,4.7s-2.1,4.7-4.7,4.7s-4.7-2.1-4.7-4.7S-431.7,447.1-429.1,447.1z
		 M-429.1,454.8c1.6,0,3-1.3,3-3s-1.4-3-3-3s-3,1.4-3,3S-430.7,454.8-429.1,454.8z"/>
	<path class="st0" d="M-418,447.1c1.2,0,2.3,0.5,3.2,1.2c0.1,0.1,0.1,0.3,0,0.4l-0.8,0.8c-0.1,0.1-0.2,0.1-0.3,0
		c-0.6-0.5-1.2-0.8-2-0.8c-1.6,0-2.9,1.4-2.9,3c0,1.6,1.3,3,2.9,3c0.7,0,1.3-0.2,1.5-0.3v-1.1h-1c-0.1,0-0.2-0.1-0.2-0.2v-1
		c0-0.1,0.1-0.2,0.2-0.2h2.5c0.1,0,0.2,0.1,0.2,0.2v3.3c0,0.1-0.1,0.2-0.1,0.2c0,0-1.3,0.8-3.2,0.8c-2.6,0-4.7-2.1-4.7-4.7
		S-420.6,447.1-418,447.1z"/>
	<path class="st0" d="M-412.1,447.5c0-0.1,0.1-0.2,0.2-0.2h1.2c0.1,0,0.2,0.1,0.2,0.2v8.6c0,0.1-0.1,0.2-0.2,0.2h-1.2
		c-0.1,0-0.2-0.1-0.2-0.2V447.5z"/>
	<path class="st0" d="M-407.4,447.5c0-0.1,0.1-0.2,0.2-0.2h5.3c0.1,0,0.2,0.1,0.2,0.2v1.1c0,0.1-0.1,0.2-0.2,0.2h-3.8v2.1h3.2
		c0.1,0,0.2,0.1,0.2,0.2v1.1c0,0.1-0.1,0.2-0.2,0.2h-3.2v2.3h3.8c0.1,0,0.2,0.1,0.2,0.2v1.1c0,0.1-0.1,0.2-0.2,0.2h-5.3
		c-0.1,0-0.2-0.1-0.2-0.2V447.5z"/>
	<path class="st0" d="M-399.6,455.1l0.5-0.8c0.1-0.2,0.3-0.2,0.4-0.1c0.1,0,1.1,0.8,2,0.8c0.7,0,1.2-0.4,1.2-1
		c0-0.7-0.6-1.1-1.7-1.6c-1.2-0.5-2.4-1.3-2.4-2.8c0-1.2,0.9-2.5,2.9-2.5c1.3,0,2.3,0.7,2.6,0.9c0.1,0.1,0.2,0.3,0.1,0.4l-0.5,0.7
		c-0.1,0.2-0.3,0.3-0.5,0.2c-0.1-0.1-1.1-0.7-1.8-0.7c-0.7,0-1.1,0.5-1.1,0.9c0,0.6,0.5,1,1.5,1.5c1.3,0.5,2.7,1.3,2.7,2.9
		c0,1.3-1.2,2.6-3,2.6c-1.6,0-2.6-0.8-2.9-1C-399.7,455.3-399.8,455.3-399.6,455.1z"/>
	<path class="st1" d="M-572.4,401.3c-9.5,0-16.8,6.9-16.8,17.6c0,9.9,7.2,17.6,17.8,17.6c8,0,13-4.8,13-4.8l-2.7-4.7
		c0,0-4.2,3.9-9.9,3.9c-6,0-11.2-3.7-11.5-11.1h24.5c0,0,0.2-1.9,0.2-2.8C-557.9,408.3-562.9,401.3-572.4,401.3z M-582.4,414.9
		c0.9-5.5,4.9-8.6,9.8-8.6c4.3,0,7.9,2.8,8.1,8.6H-582.4z"/>
	<rect x="-550.5" y="379.8" class="st1" width="6.4" height="76.6"/>
	<rect x="-532.5" y="393.1" class="st1" width="6.4" height="43.5"/>
	<path class="st1" d="M-508.2,423.2v-14.9h8.1v-5.2h-8.1v-9.7h-6.2v9.7h-4.6v5.2h4.4v15.6c0,11.2,8.5,12.5,12.9,12.5
		c1.3,0,2.3-0.1,2.3-0.1v-5.7c0,0-0.6,0.1-1.5,0.1C-503.5,430.7-508.2,429.9-508.2,423.2z"/>
	<path class="st1" d="M-463.3,417c0-8.7-5-15.7-14.5-15.7c-9.5,0-16.8,6.9-16.8,17.6c0,9.9,7.2,17.6,17.8,17.6c8,0,13-4.8,13-4.8
		l-2.7-4.7c0,0-4.2,3.9-9.9,3.9c-6,0-11.2-3.7-11.5-11.1h24.5C-463.5,419.8-463.3,417.9-463.3,417z M-487.8,414.9
		c0.9-5.5,4.9-8.6,9.8-8.6c4.3,0,7.9,2.8,8.1,8.6H-487.8z"/>
	<circle class="st1" cx="-529.3" cy="383.1" r="3.3"/>
</g>
<g>
	<path class="st2" d="M37.4,43.7c0-0.1,0-0.2,0.2-0.2h0.8c0.1,0,0.1,0.1,0.2,0.1l0.9,3.3h0l1.3-3.5c0-0.1,0.1-0.1,0.1-0.1H41
		c0.1,0,0.1,0,0.1,0.1l1.3,3.5h0l0.9-3.3c0-0.1,0.1-0.1,0.2-0.1h0.8c0.1,0,0.2,0.1,0.2,0.2l-1.6,5.6c0,0.1-0.1,0.1-0.2,0.1h-0.1
		c-0.1,0-0.1,0-0.1-0.1L41,45.5h0l-1.5,3.8c0,0.1-0.1,0.1-0.1,0.1h-0.1c-0.1,0-0.1-0.1-0.2-0.1L37.4,43.7z"/>
	<path class="st2" d="M45.9,43.6c0-0.1,0.1-0.2,0.2-0.2h3.4c0.1,0,0.2,0.1,0.2,0.2v0.7c0,0.1-0.1,0.2-0.2,0.2H47v1.4H49
		c0.1,0,0.2,0.1,0.2,0.2v0.7c0,0.1-0.1,0.2-0.2,0.2H47v1.5h2.5c0.1,0,0.2,0.1,0.2,0.2v0.7c0,0.1-0.1,0.2-0.2,0.2H46
		c-0.1,0-0.2-0.1-0.2-0.2V43.6z"/>
	<path class="st2" d="M51.2,43.6c0-0.1,0.1-0.2,0.2-0.2h1.9c1,0,1.8,0.7,1.8,1.6c0,0.6-0.5,1.1-0.9,1.3c0.4,0.1,1.1,0.6,1.1,1.4
		c0,0.9-0.8,1.6-1.8,1.6h-2c-0.1,0-0.2-0.1-0.2-0.2V43.6z M53.2,45.9c0.4,0,0.7-0.3,0.7-0.8c0-0.4-0.3-0.7-0.7-0.7h-0.9v1.5H53.2z
		 M53.3,48.3c0.4,0,0.8-0.3,0.8-0.8c0-0.4-0.4-0.7-0.9-0.7h-0.9v1.5H53.3z"/>
	<path class="st2" d="M59.9,44.5h-1.3c-0.1,0-0.2-0.1-0.2-0.2v-0.7c0-0.1,0.1-0.2,0.2-0.2h3.7c0.1,0,0.2,0.1,0.2,0.2v0.7
		c0,0.1-0.1,0.2-0.2,0.2H61v4.7c0,0.1-0.1,0.2-0.2,0.2H60c-0.1,0-0.2-0.1-0.2-0.2V44.5z"/>
	<path class="st2" d="M63.7,43.6c0-0.1,0.1-0.2,0.2-0.2h3.4c0.1,0,0.2,0.1,0.2,0.2v0.7c0,0.1-0.1,0.2-0.2,0.2h-2.5v1.4h2.1
		c0.1,0,0.2,0.1,0.2,0.2v0.7c0,0.1-0.1,0.2-0.2,0.2h-2.1v1.5h2.5c0.1,0,0.2,0.1,0.2,0.2v0.7c0,0.1-0.1,0.2-0.2,0.2h-3.4
		c-0.1,0-0.2-0.1-0.2-0.2V43.6z"/>
	<path class="st2" d="M71.6,43.4c0.8,0,1.5,0.3,2,0.8c0.1,0.1,0.1,0.2,0,0.2l-0.5,0.5c-0.1,0.1-0.1,0.1-0.2,0
		c-0.4-0.3-0.8-0.5-1.3-0.5c-1.1,0-1.9,0.9-1.9,2c0,1,0.8,1.9,1.9,1.9c0.5,0,0.9-0.2,1.3-0.5c0.1-0.1,0.2-0.1,0.2,0l0.5,0.5
		c0.1,0.1,0,0.2,0,0.2c-0.6,0.6-1.3,0.8-2,0.8c-1.7,0-3-1.3-3-3S69.9,43.4,71.6,43.4z"/>
	<path class="st2" d="M75.2,43.6c0-0.1,0.1-0.2,0.2-0.2h0.8c0.1,0,0.2,0.1,0.2,0.2v2.2H79v-2.2c0-0.1,0.1-0.2,0.2-0.2h0.8
		c0.1,0,0.2,0.1,0.2,0.2v5.5c0,0.1-0.1,0.2-0.2,0.2h-0.8c-0.1,0-0.2-0.1-0.2-0.2v-2.3h-2.7v2.3c0,0.1-0.1,0.2-0.2,0.2h-0.8
		c-0.1,0-0.2-0.1-0.2-0.2V43.6z"/>
	<path class="st2" d="M82,43.5c0-0.1,0.1-0.2,0.2-0.2h0.2l3.5,3.7h0v-3.5c0-0.1,0.1-0.2,0.2-0.2h0.8c0.1,0,0.2,0.1,0.2,0.2v5.6
		c0,0.1-0.1,0.2-0.2,0.2h-0.2l-3.5-3.8h0v3.6c0,0.1-0.1,0.2-0.2,0.2h-0.8c-0.1,0-0.2-0.1-0.2-0.2V43.5z"/>
	<path class="st2" d="M91.5,43.4c1.7,0,3,1.3,3,3s-1.3,3-3,3s-3-1.3-3-3S89.8,43.4,91.5,43.4z M91.5,48.3c1.1,0,1.9-0.9,1.9-1.9
		s-0.9-1.9-1.9-1.9s-1.9,0.9-1.9,1.9S90.5,48.3,91.5,48.3z"/>
	<path class="st2" d="M96,43.6c0-0.1,0.1-0.2,0.2-0.2H97c0.1,0,0.2,0.1,0.2,0.2v4.7h2.1c0.1,0,0.2,0.1,0.2,0.2v0.7
		c0,0.1-0.1,0.2-0.2,0.2h-3.1c-0.1,0-0.2-0.1-0.2-0.2V43.6z"/>
	<path class="st2" d="M103.2,43.4c1.7,0,3,1.3,3,3s-1.3,3-3,3c-1.7,0-3-1.3-3-3S101.5,43.4,103.2,43.4z M103.2,48.3
		c1.1,0,1.9-0.9,1.9-1.9s-0.9-1.9-1.9-1.9c-1.1,0-1.9,0.9-1.9,1.9S102.2,48.3,103.2,48.3z"/>
	<path class="st2" d="M110.3,43.4c0.8,0,1.5,0.3,2,0.8c0.1,0.1,0.1,0.2,0,0.2l-0.5,0.5c-0.1,0.1-0.1,0.1-0.2,0
		c-0.4-0.3-0.8-0.5-1.3-0.5c-1,0-1.9,0.9-1.9,1.9c0,1,0.8,1.9,1.9,1.9c0.5,0,0.8-0.1,1-0.2v-0.7h-0.7c-0.1,0-0.2-0.1-0.2-0.2v-0.7
		c0-0.1,0.1-0.2,0.2-0.2h1.6c0.1,0,0.2,0.1,0.2,0.2v2.1c0,0.1,0,0.1-0.1,0.1c0,0-0.9,0.5-2.1,0.5c-1.7,0-3-1.3-3-3
		S108.7,43.4,110.3,43.4z"/>
	<path class="st2" d="M114.1,43.6c0-0.1,0.1-0.2,0.2-0.2h0.8c0.1,0,0.2,0.1,0.2,0.2v5.5c0,0.1-0.1,0.2-0.2,0.2h-0.8
		c-0.1,0-0.2-0.1-0.2-0.2V43.6z"/>
	<path class="st2" d="M117.2,43.6c0-0.1,0.1-0.2,0.2-0.2h3.4c0.1,0,0.2,0.1,0.2,0.2v0.7c0,0.1-0.1,0.2-0.2,0.2h-2.5v1.4h2.1
		c0.1,0,0.2,0.1,0.2,0.2v0.7c0,0.1-0.1,0.2-0.2,0.2h-2.1v1.5h2.5c0.1,0,0.2,0.1,0.2,0.2v0.7c0,0.1-0.1,0.2-0.2,0.2h-3.4
		c-0.1,0-0.2-0.1-0.2-0.2V43.6z"/>
	<path class="st2" d="M122.2,48.5l0.3-0.5c0.1-0.1,0.2-0.1,0.3-0.1c0,0,0.7,0.5,1.3,0.5c0.4,0,0.8-0.3,0.8-0.6c0-0.4-0.4-0.7-1.1-1
		c-0.8-0.3-1.6-0.8-1.6-1.8c0-0.7,0.6-1.6,1.9-1.6c0.9,0,1.5,0.4,1.7,0.6c0.1,0.1,0.1,0.2,0.1,0.3l-0.3,0.5
		c-0.1,0.1-0.2,0.2-0.3,0.1c-0.1,0-0.7-0.5-1.2-0.5c-0.5,0-0.7,0.3-0.7,0.6c0,0.4,0.3,0.7,1,0.9c0.8,0.3,1.8,0.8,1.8,1.9
		c0,0.9-0.7,1.7-1.9,1.7c-1.1,0-1.7-0.5-1.8-0.7C122.2,48.7,122.1,48.6,122.2,48.5z"/>
	<path class="st1" d="M10.8,13.8C4.7,13.8,0,18.3,0,25.2c0,6.4,4.7,11.3,11.5,11.3c5.2,0,8.4-3.1,8.4-3.1l-1.7-3
		c0,0-2.7,2.5-6.4,2.5c-3.8,0-7.2-2.4-7.4-7.1H20c0,0,0.1-1.2,0.1-1.8C20.2,18.4,16.9,13.8,10.8,13.8z M4.4,22.6
		c0.6-3.5,3.2-5.5,6.3-5.5c2.8,0,5.1,1.8,5.2,5.5H4.4z"/>
	<rect x="25" class="st1" width="4.1" height="49.4"/>
	<rect x="36.5" y="8.5" class="st1" width="4.1" height="28.1"/>
	<path class="st1" d="M52.2,28v-9.6h5.2V15h-5.2V8.8h-4V15h-2.9v3.3h2.8v10.1c0,7.2,5.5,8.1,8.3,8.1c0.9,0,1.5-0.1,1.5-0.1v-3.7
		c0,0-0.4,0.1-1,0.1C55.2,32.8,52.2,32.3,52.2,28z"/>
	<path class="st1" d="M81.1,24c0-5.6-3.2-10.1-9.4-10.1c-6.2,0-10.8,4.4-10.8,11.3c0,6.4,4.7,11.3,11.5,11.3c5.2,0,8.4-3.1,8.4-3.1
		l-1.7-3c0,0-2.7,2.5-6.4,2.5c-3.8,0-7.2-2.4-7.4-7.1H81C81,25.8,81.1,24.5,81.1,24z M65.4,22.6c0.6-3.5,3.2-5.5,6.3-5.5
		c2.8,0,5.1,1.8,5.2,5.5H65.4z"/>
	<circle class="st1" cx="38.6" cy="2.1" r="2.1"/>
</g>
</svg>
