<svg xmlns="http://www.w3.org/2000/svg" xmlns:xlink="http://www.w3.org/1999/xlink" width="157" height="96" viewBox="0 0 157 96"><defs><style>.a{opacity:0.65;clip-path:url(#a);}.b{fill-rule:evenodd;}</style><clipPath id="a"><rect width="157" height="96" transform="translate(869.609 159)"/></clipPath></defs><g class="a" transform="translate(-869.609 -159)"><g transform="translate(899.673 177.239)"><path class="b" d="M143.817,97.5V84.6H138.5V97.5h5.317Z" transform="translate(-61.794 -37.746)"/><path class="b" d="M83.76,92.366V85H78.609v5.649a9.166,9.166,0,0,1-.166,2.492,2.8,2.8,0,0,1-2.88,1.717c-1.772,0-2.6-.665-2.935-1.772a8.4,8.4,0,0,1-.166-1.163,11.539,11.539,0,0,1,0-1.385V85H67.2v7.366a4.827,4.827,0,0,0,1.5,3.766c1.551,1.551,4.209,1.994,6.646,1.994,2.991,0,5.261-.443,6.923-2.049a4.56,4.56,0,0,0,1.5-3.711Z" transform="translate(-29.982 -37.924)"/><path class="b" d="M37.558,87.409a2.943,2.943,0,0,0-.775-.055H30.857c-.277,0-.609.055-.775.055a6.174,6.174,0,0,0,.5-.554l2.658-4.375c.332-.609.5-1,.609-1.163a5.862,5.862,0,0,0,.609,1.163L37.17,86.91a1.206,1.206,0,0,0,.388.5Zm9.858,6.258L35.62,76H29.029l1.717,2.049c.055.055.111.055.166.111-.055.055-.111.055-.166.111L20.5,93.667h5.981l1.606-2.658a1.148,1.148,0,0,0,.111-.332,3.124,3.124,0,0,0,.388.055H39.22a1.959,1.959,0,0,0,.332-.055.6.6,0,0,0,.055.277l1.661,2.714h6.148Z" transform="translate(-9.146 -33.909)"/><path class="b" d="M119.659,87.021c0-1.44-.609-3.1-2.437-5.428L112.792,76h-6.148l3.489,3.932a11.936,11.936,0,0,0,1.329,1.218,5.663,5.663,0,0,0-2.769-.665,12.333,12.333,0,0,0-5.926,1.44A5.885,5.885,0,0,0,99.5,87.187a6.138,6.138,0,0,0,1.883,4.32c2.381,2.381,6.646,2.6,8.2,2.6,2.326,0,5.981-.5,8.031-2.381a6.149,6.149,0,0,0,2.049-4.708Zm-5.151.166a3.358,3.358,0,0,1-1.994,2.935,6.226,6.226,0,0,1-2.935.609,7.311,7.311,0,0,1-2.991-.665,3.343,3.343,0,0,1-1.938-2.825,3.621,3.621,0,0,1,2.381-3.1,5.733,5.733,0,0,1,2.492-.5,7.563,7.563,0,0,1,2.6.443,3.636,3.636,0,0,1,2.381,3.1Z" transform="translate(-44.394 -33.909)"/><path class="b" d="M80.306,0A16.954,16.954,0,0,0,69.783,3.655,17.232,17.232,0,0,0,59.2,0,16.954,16.954,0,0,0,48.682,3.655,17.232,17.232,0,0,0,38.1,0,16.954,16.954,0,0,0,27.581,3.655,17.232,17.232,0,0,0,17,0,17,17,0,1,0,27.525,30.35a17.134,17.134,0,0,0,21.156,0,17.054,17.054,0,0,0,21.1,0A17,17,0,1,0,80.306,0ZM24.756,27.581A13.122,13.122,0,1,1,17,3.877a13.008,13.008,0,0,1,7.754,2.548A16.782,16.782,0,0,0,21.1,17a17.112,17.112,0,0,0,3.655,10.578Zm2.825-2.769a13.242,13.242,0,0,1,0-15.618,13.242,13.242,0,0,1,0,15.618Zm18.276,2.769a13.073,13.073,0,0,1-15.507,0,17.134,17.134,0,0,0,0-21.156,13.073,13.073,0,0,1,15.507,0A16.782,16.782,0,0,0,42.2,17a17.112,17.112,0,0,0,3.655,10.578Zm2.825-2.769a13.242,13.242,0,0,1,0-15.618,13.242,13.242,0,0,1,0,15.618Zm18.276,2.769a13.073,13.073,0,0,1-15.507,0,17.134,17.134,0,0,0,0-21.156,13.073,13.073,0,0,1,15.507,0A16.782,16.782,0,0,0,63.3,17a17.112,17.112,0,0,0,3.655,10.578Zm2.825-2.769a13.242,13.242,0,0,1,0-15.618,13.242,13.242,0,0,1,0,15.618Zm10.523,5.317a13.008,13.008,0,0,1-7.754-2.548,17.134,17.134,0,0,0,0-21.156,13.122,13.122,0,1,1,7.754,23.7Z"/></g></g></svg>