<svg xmlns="http://www.w3.org/2000/svg" width="126.366" height="80.104" viewBox="0 0 126.366 80.104"><defs><style>.a{fill:#c13939;}</style></defs><path class="a" d="M101.072,22.477a25.509,25.509,0,0,0-3.021.182A21.141,21.141,0,0,0,77.886,7.722a20.749,20.749,0,0,0-6.779,1.132A27.384,27.384,0,0,0,18.867,20.369a26.981,26.981,0,0,0,.821,6.589,23.186,23.186,0,0,0,3.394,46.107h77.99a25.294,25.294,0,0,0,0-50.588Zm0,46.372H23.083a18.958,18.958,0,0,1-.565-37.909,2.108,2.108,0,0,0,1.927-2.814A23.163,23.163,0,0,1,67.986,12.318,2.107,2.107,0,0,0,70.843,13.5,16.821,16.821,0,0,1,94.414,25.46,2.107,2.107,0,0,0,96.9,27.11a21.38,21.38,0,0,1,4.176-.417,21.078,21.078,0,1,1,0,42.156Zm0,0" transform="translate(0 7.039)"/></svg>