<svg xmlns="http://www.w3.org/2000/svg" width="60.598" height="55.006" viewBox="0 0 60.598 55.006"><defs><style>.a{fill:#6dd3ce;stroke:#6dd3ce;stroke-width:0.4px;}</style></defs><g transform="translate(0.284 -23.262)"><g transform="translate(0 23.462)"><g transform="translate(0 0)"><path class="a" d="M43.97,62.154,55.362,50.762a4.422,4.422,0,0,0-2.134-7.439A4.427,4.427,0,0,0,49.965,37.1a4.418,4.418,0,0,0-3.447-5.744A4.428,4.428,0,0,0,40.2,26.074l-.113-.122a7.837,7.837,0,0,0-5.718-2.49H25.149a1.175,1.175,0,0,0-1.174,1.174v1.54a5.335,5.335,0,0,0,.3,1.78,4.426,4.426,0,0,0-5.9,5.478,4.425,4.425,0,0,0-3.452,5.745A4.425,4.425,0,0,0,11.669,45.4a4.426,4.426,0,0,0-2.135,7.442l2.343,2.343L.343,66.72A1.174,1.174,0,1,0,2,68.381L13.649,56.736a4.423,4.423,0,0,0,6.606-4.027c.06,0,.119,0,.179,0a4.422,4.422,0,0,0,4.425-4.423c0-.06,0-.119,0-.179.059,0,.118,0,.177,0a4.422,4.422,0,0,0,4.425-4.423c0-.06,0-.119,0-.179.059,0,.118,0,.177,0a4.423,4.423,0,0,0,3.423-7.228l7.8-7.8a2.077,2.077,0,1,1,2.937,2.937l-1.149,1.149-4.17,4.17a1.174,1.174,0,1,0,1.661,1.661l4.17-4.17a2.077,2.077,0,1,1,2.937,2.937l-1.149,1.149-3.021,3.021a1.174,1.174,0,1,0,1.661,1.661l3.021-3.021a2.077,2.077,0,1,1,2.937,2.937L49.1,44.5l-1.443,1.443a1.174,1.174,0,1,0,1.661,1.661l1.444-1.444A2.077,2.077,0,0,1,53.7,49.1L42.307,60.494A15.909,15.909,0,0,1,31.6,65.157a1.174,1.174,0,0,0-.789.345L20.289,76.065a1.174,1.174,0,1,0,1.664,1.658l7.741-7.769a10.916,10.916,0,0,0,6.63,1.706l6.058,6.058a1.174,1.174,0,0,0,1.661-1.661L37.6,69.615a1.175,1.175,0,0,0-.926-.34L36.3,69.3a8.572,8.572,0,0,1-4.9-1.067l.755-.757A18.247,18.247,0,0,0,43.97,62.154ZM17.3,54.357a2.076,2.076,0,0,1-2.937,0L11.2,51.183a2.077,2.077,0,1,1,2.937-2.937l3.173,3.173A2.079,2.079,0,0,1,17.3,54.357Zm4.6-4.6a2.079,2.079,0,0,1-2.937,0l-3.173-3.173-1.578-1.578a2.077,2.077,0,1,1,2.937-2.937L21.9,46.822h0a2.077,2.077,0,0,1,0,2.937Zm4.6-4.6a2.079,2.079,0,0,1-2.937,0l-5.9-5.9A2.077,2.077,0,0,1,20.6,36.323l2.689,2.689L26.5,42.224h0a2.077,2.077,0,0,1,0,2.937Zm4.6-4.6a2.079,2.079,0,0,1-2.937,0l-5.9-5.9,0,0-1.147-1.147a2.077,2.077,0,0,1,2.937-2.937l7.05,7.05a2.077,2.077,0,0,1,0,2.937Zm.309-5.95-3.226-3.226a5.373,5.373,0,0,0,1.125.119h.026l3.223-.015a1.174,1.174,0,0,0-.005-2.349h-.006l-3.223.015h-.015a2.983,2.983,0,0,1-2.983-2.983v-.366h8.047a5.481,5.481,0,0,1,4,1.741l.048.051Z" transform="translate(0 -23.462)"/></g></g><path class="a" d="M472.454,331.934l-6.4-6.378a1.174,1.174,0,0,0-1.654,1.668l6.4,6.378a1.174,1.174,0,0,0,1.654-1.668Z" transform="translate(-412.687 -269.444)"/></g></svg>