<svg xmlns="http://www.w3.org/2000/svg" width="73.961" height="65.216" viewBox="0 0 73.961 65.216"><defs><style>.a{fill:#bcff00;}</style></defs><g transform="translate(73.961 72.545) rotate(180)"><path class="a" d="M29.713,20.278A3.556,3.556,0,0,0,31.5,15.5L28.579,9.359a3.567,3.567,0,0,0-4.654-1.73,41.105,41.105,0,0,0-12.888,8.353A31.174,31.174,0,0,0,2.387,29.645C.835,34.777,0,41.757,0,50.647V68.964a3.59,3.59,0,0,0,3.58,3.58H27.028a3.59,3.59,0,0,0,3.58-3.58V45.516a3.59,3.59,0,0,0-3.58-3.58H15.811c.119-6.027,1.551-10.859,4.177-14.5A22.678,22.678,0,0,1,29.713,20.278Z"/><path class="a" d="M100.353,20.318a3.557,3.557,0,0,0,1.79-4.773L99.22,9.46a3.567,3.567,0,0,0-4.654-1.73,43.22,43.22,0,0,0-12.828,8.293,31.843,31.843,0,0,0-8.712,13.723Q70.7,37.263,70.7,50.688V69.005a3.59,3.59,0,0,0,3.58,3.58H97.728a3.59,3.59,0,0,0,3.58-3.58V45.557a3.59,3.59,0,0,0-3.58-3.58H86.451c.119-6.027,1.552-10.859,4.177-14.5A22.674,22.674,0,0,1,100.353,20.318Z" transform="translate(-28.517 -0.041)"/></g></svg>