<svg xmlns="http://www.w3.org/2000/svg" width="55.525" height="55.504" viewBox="0 0 55.525 55.504"><defs><style>.a{fill:#b5e181;stroke:#b5e181;stroke-width:0.8px;}</style></defs><g transform="translate(0.419 0.4)"><path class="a" d="M1.069,17.73H11.323V29.479s0,0,0,.007a1.065,1.065,0,0,0,.35.783l.017.016L39.46,54.424a1.069,1.069,0,0,0,1.769-.806v-23.8a1.069,1.069,0,0,0-.372-.811l-4.541-3.9L54.463,1.723A1.068,1.068,0,0,0,53.619,0H33.752A1.076,1.076,0,0,0,32.9.426L22.949,13.66,13.09,5.173h0a1.071,1.071,0,0,0-1.429.033L.336,15.885a1.068,1.068,0,0,0,.733,1.845ZM32.817,4.089l.9,20.273L14.9,27.918,32.817,4.089ZM23.669,37.867l-8.914-7.748L32.29,26.806ZM39.093,51.275l-13.809-12L35,26.8l4.09,3.511ZM35.767,22.333l-.9-20.2H51.438ZM13.459,8.31l8.2,7.061-8.2,10.91Zm-2.136.147v7.137H3.757Zm0,0" transform="translate(0)"/><path class="a" d="M326,287.064v12.409a1.068,1.068,0,0,0,2.136,0V287.064a1.068,1.068,0,0,0-2.136,0Zm0,0" transform="translate(-291.175 -255.449)"/></g></svg>