<svg xmlns="http://www.w3.org/2000/svg" width="29.576" height="25.364" viewBox="0 0 29.576 25.364"><defs><style>.a{fill:#eb3b2e;}</style></defs><g transform="translate(29.575 57.206) rotate(180)"><g transform="translate(0 31.842)"><path class="a" d="M27.8,42.448a2.115,2.115,0,0,0-.366-.027H6.567l.455-.212a4.232,4.232,0,0,0,1.2-.846l5.851-5.851a2.19,2.19,0,0,0,.307-2.8,2.116,2.116,0,0,0-3.174-.275L.62,43.013a2.116,2.116,0,0,0,0,2.993l0,0L11.2,56.588a2.116,2.116,0,0,0,3.174-.212,2.19,2.19,0,0,0-.307-2.8L8.228,47.711a4.232,4.232,0,0,0-1.058-.772l-.635-.286h20.78a2.19,2.19,0,0,0,2.233-1.778A2.116,2.116,0,0,0,27.8,42.448Z" transform="translate(0 -31.842)"/></g></g></svg>