<svg xmlns="http://www.w3.org/2000/svg" width="76.541" height="125.398" viewBox="0 0 76.541 125.398"><defs><style>.a{fill:#d33833;}.b{fill:#ef3d3a;}.c{fill:#231f20;}.d{fill:#f0d6b7;}.e{fill:#335061;}.f{fill:#6d6b6d;}.g{fill:#dcd9d8;}.h{fill:#f7e4cd;}.i{fill:#49728b;}.j{fill:#fff;}.k{stroke:#d33833;stroke-width:2px;}.l{fill:#81b0c4;}.m{fill:#1d1919;}</style></defs><g transform="translate(-0.893 -0.296)"><path class="a" d="M78.726,81.328c0,20.9-16.574,37.867-37.031,37.867S4.664,102.232,4.664,81.328,21.238,43.461,41.694,43.461,78.726,60.423,78.726,81.328" transform="translate(-2.636 -30.173)"/><path class="b" d="M5.216,96.254S2.528,56.774,38.932,55.639L36.393,51.4l-19.74,6.63-5.644,6.48L6.082,73.945,3.274,84.935l.836,7.346" transform="translate(-1.665 -35.722)"/><path class="c" d="M13.7,53.137A37.138,37.138,0,0,0,3.193,79.119h0A37.138,37.138,0,0,0,13.7,105.1h0a35.28,35.28,0,0,0,25.354,10.751h0A35.28,35.28,0,0,0,64.413,105.1h0A37.138,37.138,0,0,0,74.925,79.119h0A37.138,37.138,0,0,0,64.413,53.137h0A35.4,35.4,0,0,0,39.059,42.386h0A35.331,35.331,0,0,0,13.7,53.137Zm-1.643,53.546A39.32,39.32,0,0,1,.893,79.119h0A39.446,39.446,0,0,1,12.062,51.525h0a37.7,37.7,0,0,1,27-11.438h0a37.7,37.7,0,0,1,27,11.438h0A39.34,39.34,0,0,1,77.225,79.119h0a39.321,39.321,0,0,1-11.169,27.564h0a37.579,37.579,0,0,1-27,11.438h0a37.578,37.578,0,0,1-27-11.438Z" transform="translate(0 -27.815)"/><path class="d" d="M87.109,54.763l-5.644.836-7.615.866-4.927.119-4.808-.149L60.44,55.3l-3.255-3.524-2.538-7.2-.567-1.553L50.7,41.892l-1.971-3.255-1.4-4.659,1.553-4.091L52.556,28.6l2.956,1.4,1.4,3.106,1.7-.269.567-.717-.567-3.255-.149-4.091.836-5.644-.03-3.225,2.568-4.121,4.509-3.255L74.237,5.16l8.75,1.284L90.6,11.939l3.524,5.644,2.27,4.091.567,10.154-1.7,8.75-3.106,7.765-2.927,4.151" transform="translate(-32.461 -3.4)"/><path class="e" d="M71.163,189.724l-20.158.836v3.374l1.7,11.856-.836.985-14.1-4.808-.985-1.7-1.4-15.947-3.315-9.556-.717-2.27,11.288-7.764,3.524-1.4,3.106,3.823,2.688,2.389,3.106.985,1.4.418,1.7,7.347,1.284,1.553,3.255-1.135-2.27,4.39,12.244,5.793-1.523.836" transform="translate(-21.294 -113.961)"/><path class="f" d="M51.172,33.068l3.673-1.284,2.956,1.4,1.4,3.106,1.7-.269.418-1.7-.836-3.255.836-7.765-.717-4.241,2.538-2.956,5.495-4.36L67.09,9.625l-7.765,3.823L56.07,15.986l-1.822,3.942L51.441,23.75,50.6,28.26l.567,4.808" transform="translate(-34.75 -6.521)"/><path class="g" d="M64.179,20.979s2.12-5.226,10.572-7.765.418-1.822.418-1.822L66,14.916,62.477,18.44l-1.553,2.807,3.255-.269" transform="translate(-41.963 -7.692)"/><path class="g" d="M52.725,54.07s-2.956-9.885,8.332-11.288l-.418-1.7L52.874,42.9,50.6,50.247l.567,4.808,1.553-.985" transform="translate(-34.75 -28.509)"/><path class="h" d="M72.633,123.64l1.852-1.792a1.19,1.19,0,0,1,.985,1.075c.149.986.567,9.885,6.63,14.663.567.448-4.509-.717-4.509-.717l-4.509-7.048" transform="translate(-50.148 -84.968)"/><path class="h" d="M158.846,109.674s.328-4.27,1.493-3.942a1.6,1.6,0,0,1,1.165,1.493s-2.807,1.792-2.658,2.449" transform="translate(-110.41 -73.69)"/><path class="h" d="M191.833,66.878s-2.329.478-2.538,2.538,2.538.418,2.956.269" transform="translate(-131.69 -46.542)"/><path class="h" d="M133.884,67.374s-3.106.418-3.106,2.389,3.524,1.822,4.509.985" transform="translate(-90.793 -46.889)"/><path class="h" d="M56.1,88.333s-5.346-3.255-5.913-.149-1.822,5.346.836,8.6L49.2,96.217l-1.7-4.36-.567-4.241,3.255-3.375,3.673.269,2.12,1.7.119,2.12" transform="translate(-32.184 -58.681)"/><path class="h" d="M85.477,21.622S87.866,9.2,99.99,6.809c9.974-1.971,15.23.418,17.2,2.688,0,0-8.9-10.572-17.351-7.346C91.39,5.406,85.178,11.319,85.327,15.111c.239,6.51.149,6.51.149,6.51" transform="translate(-59.02 -0.869)"/><path class="h" d="M184.632,32.643s-4.091-.149-4.241,3.524a2.96,2.96,0,0,0,.269,1.135s3.255-3.673,5.226-1.7" transform="translate(-125.474 -22.611)"/><path class="h" d="M116.219,41.577s-.717-5.614-5.495-2.359c-3.106,2.12-2.807,5.077-2.27,5.644.567.567.418,1.7.836.926s.3-3.315,1.852-4.032c1.523-.717,4.091-1.493,5.077-.179" transform="translate(-74.95 -26.498)"/><path class="i" d="M49.373,166.869l-13.26,5.913s5.495,21.86,2.688,28.639L36.83,200.7l-.149-8.332L33.007,176.6l-1.553-4.36,13.827-9.317,4.091,3.942" transform="translate(-21.363 -113.684)"/><path class="i" d="M94,216.211l1.881,2.3v8.452h-2.24s-.269-5.913-.269-6.63.269-3.255.269-3.255" transform="translate(-64.645 -150.931)"/><path class="i" d="M80.879,256.2l-6.361.269,1.822,1.284,4.509.717" transform="translate(-51.466 -178.883)"/><path class="e" d="M167.789,251.188l5.226-.149L174.3,264l-5.346.717-1.165-13.528" transform="translate(-116.665 -175.277)"/><path class="e" d="M172.453,185.017l7.884-.418s3.255-8.183,3.255-8.6,2.807-11.856,2.807-11.856l-6.361-6.63-1.284-1.135-3.374,3.375v13.11l-2.927,12.155" transform="translate(-119.926 -109.106)"/><path class="i" d="M172.716,248.26l-4.927.986.717,3.942c1.821.836,4.927-1.4,4.927-1.4" transform="translate(-116.665 -173.334)"/><path class="i" d="M184.657,159.4l9.885,7.346.269-3.375-7.466-6.9-2.688,2.927" transform="translate(-128.457 -109.176)"/><path class="j" d="M101.175,279.239l-2.927-11.856-1.463-8.75-.239-6.48,13.23-.717h8.213l-.746,14.812,1.284,11.438-.149,2.12-10.721.836-6.48-1.4" transform="translate(-66.864 -175.554)"/><path class="g" d="M140.79,249.1s-.717,14.663,1.4,25.115a26.752,26.752,0,0,1-10.422,3.374l11.856-.418,1.4-.836-1.7-23.115-.448-4.958" transform="translate(-91.488 -173.334)"/><path class="j" d="M186.646,254.016l5.495-1.553,10.423-.567,1.553-4.808-2.807-8.332-3.255-.418-4.509,1.4-4.3,2.12-2.3-.418-1.792.717" transform="translate(-128.803 -166.398)"/><path class="g" d="M189.817,257.7s3.673-1.7,4.241-1.553l-1.553-7.764,1.822-.717s1.284,7.346,1.284,8.183c0,0,7.884.418,8.6.418a12.839,12.839,0,0,0,1.284-6.63l1.553,4.509.149,2.538-2.27,3.374-2.538.568-4.241-.149-1.4-1.822-4.928.717-1.553.568" transform="translate(-132.064 -172.918)"/><path class="j" d="M156.587,214.055l-3.106-7.884-3.255-4.659s.717-1.971,1.7-1.971h3.255l3.106,1.135-.269,5.226-1.434,8.153" transform="translate(-104.388 -139.278)"/><path class="g" d="M156.729,210.6s-3.942-7.615-3.942-8.75c0,0,.717-1.7,1.7-1.284s3.106,1.553,3.106,1.553v-2.688l-4.808-.985-3.255.418,5.495,13.021,1.135.149" transform="translate(-103.903 -138.516)"/><path class="j" d="M98.475,173.41l-3.912-.418-3.673-1.135v1.284l1.792,1.971,5.644,2.538" transform="translate(-62.911 -119.926)"/><path class="g" d="M94.255,178.406s4.36,1.822,5.793,1.4l.149,1.7-3.942-.836-2.389-1.7.388-.567" transform="translate(-64.991 -124.504)"/><path class="a" d="M173.815,182.975a26.076,26.076,0,0,1-6.451-.9,14.747,14.747,0,0,1,.09-2.091,4.928,4.928,0,0,1,2.21-.478,3.817,3.817,0,0,0-2.449-.269,4.059,4.059,0,0,0-.418-1.284c1.344-.478,4.509-3.613,6.3-2.6.866.508,1.225,3.315,1.284,4.719a4.941,4.941,0,0,1-.567,2.9" transform="translate(-115.972 -122.234)"/><path class="k" d="M173.815,182.975a26.076,26.076,0,0,1-6.451-.9,14.747,14.747,0,0,1,.09-2.091,4.928,4.928,0,0,1,2.21-.478,3.817,3.817,0,0,0-2.449-.269,4.059,4.059,0,0,0-.418-1.284c1.344-.478,4.509-3.613,6.3-2.6.866.508,1.225,3.315,1.284,4.719a4.941,4.941,0,0,1-.567,2.9Z" transform="translate(-115.972 -122.234)"/><path class="a" d="M127.783,180.413a3.22,3.22,0,0,1-.03.538c-.746.478-1.941.478-2.777.9a7.828,7.828,0,0,1,2.986.747c-.03.448-.03.926-.06,1.374-1.374.926-2.628,2.329-4.241,3.225-.777.418-3.434,1.493-4.241,1.284-.448-.119-.508-.687-.687-1.224a17.736,17.736,0,0,1-1.374-4.719c-.09-2.18-.328-5.853,2.031-5.405a20.6,20.6,0,0,1,5.585,2.031,5.669,5.669,0,0,0,2.807,1.254" transform="translate(-81.378 -123.585)"/><path class="k" d="M127.783,180.413a3.22,3.22,0,0,1-.03.538c-.746.478-1.941.478-2.777.9a7.828,7.828,0,0,1,2.986.747c-.03.448-.03.926-.06,1.374-1.374.926-2.628,2.329-4.241,3.225-.777.418-3.434,1.493-4.241,1.284-.448-.119-.508-.687-.687-1.224a17.736,17.736,0,0,1-1.374-4.719c-.09-2.18-.328-5.853,2.031-5.405a20.6,20.6,0,0,1,5.585,2.031,5.669,5.669,0,0,0,2.807,1.254Z" transform="translate(-81.378 -123.585)"/><path class="a" d="M155.7,189.7a8.169,8.169,0,0,1-.358-2.568c3.2-2.12,3.763,3.644.358,2.568" transform="translate(-107.95 -130.273)"/><path class="k" d="M155.7,189.7a8.169,8.169,0,0,1-.358-2.568c3.2-2.12,3.763,3.644.358,2.568Z" transform="translate(-107.95 -130.273)"/><path class="b" d="M167.349,180.239s-.985-1.4-.269-1.822,1.4,0,1.822-.717,0-1.135.149-1.971.836-.985,1.553-1.135,2.688-.418,2.956.269l-.836-2.539-1.7-.567-5.346,3.106-.269,1.553v3.106" transform="translate(-115.001 -119.857)"/><path class="b" d="M116.533,186.915c-.179-2.21-.358-4.39-.538-6.6-.3-3.285.777-2.717,3.643-2.717.448,0,2.688.508,2.837.836.776,1.583-1.284,1.224.9,2.419,1.822.986,5.077-.6,4.33-2.837-.418-.508-2.15-.149-2.777-.478l-3.315-1.7c-1.4-.717-4.629-1.792-6.122-.777-3.793,2.568.239,9.019,1.583,11.707" transform="translate(-78.997 -121.874)"/><path class="c" d="M117.392,44.133c-3.852-.9-5.764,1.613-6.928,4.211-1.045-.239-.627-1.672-.358-2.389.687-1.881,3.464-4.42,5.734-4.061.956.119,2.27,1.015,1.553,2.24" transform="translate(-76.123 -29.054)"/><path class="c" d="M191.223,63.9h.179a40.42,40.42,0,0,0,2.718,5.316c-.747,1.732-5.555,3.225-5.5.179,1.045-.448,2.837-.09,3.763-.687-.538-1.463-1.284-2.718-1.165-4.808" transform="translate(-131.23 -44.462)"/><path class="c" d="M134.234,64.1c.836,1.523,1.1,3.106,2.27,4.241.538.508,1.553,1.135,1.045,2.568a3.287,3.287,0,0,1-1.493,1.224c-1.821.538-6.092.119-4.659-2.18,1.523.06,3.554.985,4.689-.119-.866-1.374-2.419-4.121-1.852-5.734" transform="translate(-91.024 -44.6)"/><path class="c" d="M168.726,82.926c-2.748,1.762-5.823,3.7-10.363,3.255a3.056,3.056,0,0,1-.388-3.942c.478.836.179,2.389,1.553,2.628,2.568.448,5.555-1.583,7.406-2.27,1.135-1.941-.089-2.628-1.135-3.882-2.12-2.538-4.927-5.7-4.838-9.5.866-.627.926.956,1.045,1.224,1.1,2.568,3.882,5.883,5.883,8.093.508.538,1.314,1.075,1.4,1.434.269,1.015-.687,2.27-.567,2.956" transform="translate(-109.42 -48.077)"/><path class="c" d="M61.567,97.587c-.866-.508-1.075-2.658-2.09-2.718-1.463-.09-1.195,2.807-1.195,4.509-.985-.9-1.165-3.7-.448-5.136-.836-.418-1.195.448-1.672.746.627-4.33,6.361-2,5.405,2.6" transform="translate(-38.634 -64.59)"/><path class="c" d="M184.567,121.153c-1.284,2.449-3.106,5.137-6.869,5.226a8.546,8.546,0,0,1,0-2.479c2.9-.3,4.689-1.762,6.869-2.748" transform="translate(-123.529 -84.483)"/><path class="c" d="M140.8,126.412c2.389,1.254,6.809,1.4,10.094,1.314a10.889,10.889,0,0,1,.179,2.479c-4.211.179-9.168-.866-10.273-3.793" transform="translate(-97.799 -88.159)"/><path class="c" d="M136.944,134.152c1.672,4.181,7.376,3.7,12.184,3.584a2.418,2.418,0,0,1-1.254,1.4c-1.553.627-5.794,1.105-7.944-.03-1.344-.717-2.24-2.359-2.986-3.315-.329-.448-2.12-1.613,0-1.642" transform="translate(-94.391 -93.569)"/><path class="l" d="M180.063,206.235a83.5,83.5,0,0,1-6.122,9.706c.956-2.837,1.374-7.615,1.523-11.258a3.538,3.538,0,0,1,4.6,1.553" transform="translate(-120.966 -142.628)"/><path class="c" d="M215.515,250.543c-2.18.448-3.7,2.568-5.853,2.419,1.195-1.643,3.225-2.359,5.853-2.419" transform="translate(-145.936 -174.93)"/><path class="c" d="M219.107,260.646a32.875,32.875,0,0,1-5.674.329c.866-1.314,4.151-.836,5.674-.329" transform="translate(-148.572 -181.629)"/><path class="c" d="M219.526,269.824c-2,.03-4.48,0-6.391-.15,1.135-1.224,5.107-.448,6.391.15" transform="translate(-148.363 -187.85)"/><path class="g" d="M176.2,298.387c.3,2.509,1.284,5.047,1.165,7.794a8.443,8.443,0,0,1-3.225.687c-.089-2.329-.418-5.913-.328-8.153.717.06,1.792-.508,2.389-.329" transform="translate(-120.861 -208.35)"/><path class="d" d="M153.169,175.429c-1.015.657-1.852,1.463-2.837,2.18a6.126,6.126,0,0,1-4.868-1.374c.03-.09.179-.06.179-.179,2.3,1.015,5.226-.418,7.526-.627" transform="translate(-101.059 -122.423)"/><path class="l" d="M131.175,214.215c.627-2.717,3.106-4.151,5.346-5.644,2.3,2.927,3.7,6.689,5.256,10.333a52.916,52.916,0,0,1-10.6-4.689" transform="translate(-91.071 -145.59)"/><path class="c" d="M71.371,90.4c-.09,2.24.209,5.794.328,8.153a8.443,8.443,0,0,0,3.226-.687c.119-2.748-.866-5.286-1.165-7.795-.6-.209-1.672.358-2.389.329ZM48.317,77.733A117.056,117.056,0,0,0,53.3,102.221c5.764,1.762,12.692,1.911,17.8.328-.926-4.479-.538-9.944-1.075-14.753-.418-3.613-.209-7.227-.777-10.9-6.182-1.284-14.9-.3-20.934.836Zm22.4-.777c-.06,3.852.179,7.675.478,11.527a36.85,36.85,0,0,0,3.852-.687c-.448-3.7-.388-7.914-1.314-11.2a9.484,9.484,0,0,0-3.016.358Zm7.5-.627a10.634,10.634,0,0,0-2.18,0c.328,3.136,1.075,6.6,1.344,9.915,1.045.03,1.613-.478,2.479-.627.06-2.9-.239-6.9-1.643-9.288ZM89.588,86.722c2.21-.538,3.584-3.225,2.956-6-.418-1.852-1.135-5.375-1.941-6.57-.568-.866-2.15-2.031-3.434-1.225C85.109,74.239,81.5,74.627,80,76.21a52.348,52.348,0,0,1,1.284,9.078c2.568.15,5.7-.717,7.854.209-1.493.478-3.4.478-4.689,1.195,1.075.508,3.524.418,5.137.03ZM69.1,73.313c-1.553-3.643-2.956-7.406-5.256-10.333-2.24,1.493-4.689,2.927-5.346,5.644a54.456,54.456,0,0,0,10.6,4.689Zm3.823-11.258c-.15,3.643-.568,8.421-1.523,11.258a86.1,86.1,0,0,0,6.122-9.706,3.538,3.538,0,0,0-4.6-1.553Zm-4.33-1.523c-.866-.09-1.613,1.015-2.748.538-.269.3-.508.6-.777.9,2.509,3.046,3.673,7.346,5.615,10.9,1.045-3.434.926-7.167,1.164-10.9-1.433.06-2.24-1.344-3.255-1.434Zm-2.777-3.673a8.169,8.169,0,0,0,.358,2.568c3.4,1.075,2.837-4.689-.358-2.568ZM62.024,55.6a20.585,20.585,0,0,0-5.585-2.031c-2.359-.448-2.12,3.225-2.031,5.405A18.076,18.076,0,0,0,55.783,63.7c.179.538.239,1.1.687,1.224.806.179,3.494-.866,4.241-1.284,1.613-.866,2.867-2.27,4.241-3.225.03-.448.03-.926.06-1.374a7.2,7.2,0,0,0-2.986-.747c.806-.418,2.031-.418,2.777-.9a3.224,3.224,0,0,1,.03-.538A6.247,6.247,0,0,1,62.024,55.6ZM47.988,53.066c-1.224,1.254,3.434,2.927,4.9,3.016,0-.777.448-1.523.358-2.091-1.762-.3-4.061-.09-5.256-.926Zm15.051.567c0,.119-.149.09-.179.179a6.191,6.191,0,0,0,4.868,1.374c.956-.687,1.822-1.523,2.837-2.18-2.329.209-5.256,1.643-7.526.627Zm13.8,4.181c-.06-1.374-.418-4.211-1.284-4.719-1.792-1.045-4.957,2.12-6.3,2.6a4.056,4.056,0,0,1,.418,1.284,3.8,3.8,0,0,1,2.449.269,4.932,4.932,0,0,0-2.21.478c-.179.567.06,1.314-.09,2.091a27.547,27.547,0,0,0,6.451.9,4.836,4.836,0,0,0,.567-2.9ZM45.927,54.26c-.388-.269-2.986-3.644-3.345-3.494-4.689,1.852-9.079,5.047-12.991,8.093,3.733,8.033,5.256,17.858,5.525,27.325,4.271,2,8.033,4.9,13.857,5.2-.687-4.748-1.284-9.019-1.672-13.5-1.463-.627-3.554.03-4.928-.179,0-1.642,2.09-.717,2.27-1.821.119-.836-1.165-.9-.747-2.21,1.075.388,1.643,1.254,2.777,1.583,1.045-2.27,0-6.3.149-8.213.03-.358.179-1.971.985-1.7.717.239-.03,4.33.03,6.122.06,1.672-.209,3.255.478,4.3a160.367,160.367,0,0,1,17.41-1.434,38.83,38.83,0,0,1-4.659-2.091c-.956-.538-3.912-1.642-4.181-2.538-.448-1.434,1.135-2.18,1.4-3.4-2.837,1.553-3.374-1.493-4.061-3.614a29.774,29.774,0,0,1-1.1-4.509,56.622,56.622,0,0,1-7.2-3.912Zm28.43-3.106c3.912-1.882,4.629,7.078,3.076,9.974.239.866,1.045,1.195,1.374,1.971-2.18,3.912-4.6,7.556-6.839,11.408,1.643-1.045,4.032-.179,5.973-.956.717-.269,1.225-1.911,1.762-3.225A68.831,68.831,0,0,0,83.436,58.8a13.572,13.572,0,0,0,.478-3.166c-.179-1.254-1.852-2.18-2.717-2.927-1.583-1.434-2.568-2.658-4.241-4-.627.985-2.061,1.642-2.6,2.449ZM37,16.483c-1.852,2.061-1.463,5.883-1.254,8.631,3.375-2.12,7.824.179,7.794,3.763,1.613-.03.6-2,.3-3.285-.956-4.151,1.613-8.631.119-12.423A10.154,10.154,0,0,0,37,16.483ZM50.317,4.567C46.107,5.762,40.7,8.838,38.969,12.63c1.344-.209,2.27-.866,3.584-.956a8.263,8.263,0,0,0,1.732.06c1.135-.3,2.12-2.867,2.986-3.823.836-.926,1.852-1.344,2.539-2.18.448-.209,1.1-.209,1.135-.866a.647.647,0,0,0-.627-.3ZM72.267,5.7c-4.39-2.479-11.8-4.33-16.455-2-3.763,1.881-8.84,4.987-10.572,8.9,1.613,3.793-.478,7.257-.627,11.109-.06,2.061.956,3.823,1.045,6.062-.567.926-2.24,1.015-3.4.956-.388-1.971-1.075-4.181-3.106-4.42a4.7,4.7,0,0,0-5.107,4.539c-.149,2.927,2.24,7.764,5.644,7.436,1.314-.119,1.643-1.434,3.076-1.434.776,1.553-1.195,2.031-1.4,3.136a7.5,7.5,0,0,0,.3,1.941A26.973,26.973,0,0,0,45,49.721c1.732,2.478,5.107,2.837,8.75,3.076.657-1.4,3.046-1.284,4.6-.926-1.881-.747-3.613-2.538-5.047-4.121-1.643-1.822-3.315-3.763-3.4-6.152,3.136,4.33,5.7,8.123,11.378,10.034,4.3,1.434,9.317-.657,12.632-2.986,1.374-.956,2.18-2.509,3.166-3.883,3.643-5.256,5.346-12.722,4.987-19.979-.149-2.986-.149-5.973-1.164-7.974-1.045-2.09-4.6-4-6.69-2.09-.388-2.061,1.732-3.315,4.211-2.568-1.762-2.3-3.613-5.017-6.152-6.451ZM80.45,73.224c3.434-1.7,9.825-4.569,11.946,0a35.549,35.549,0,0,1,2.12,6.3c.567,2.449-.627,7.645-3.166,8.452a15.166,15.166,0,0,1-7.525.149,4.359,4.359,0,0,1-.926-1.195,10.3,10.3,0,0,0-5.226.9c.149,1.433-.806,1.642-1.732,1.941-.657,2.658,1.344,6.122.866,8.511-.329,1.732-2.449,2-4,2.3a11.686,11.686,0,0,0,.179,2.568c-.358,1.314-1.941,2.06-3.464,2.24-4.987.6-12.543.866-17.321-.866-1.344-3.285-2.389-7.257-3.494-10.99-4.659.507-8.451-2-12.005-3.673-1.224-.567-2.927-.9-3.4-1.881-.448-.956-.269-2.777-.388-4.48a68.831,68.831,0,0,0-1.672-13.11c-.508-2.031-1.433-3.793-2.061-5.734a39.981,39.981,0,0,1-1.881-5.823c-.388-2.658,2.12-2.807,3.7-3.972,2.479-1.792,4.42-2.777,7.108-4.39.806-.478,3.2-1.672,3.464-2.24.538-1.1-.926-2.658-1.314-3.524a10.623,10.623,0,0,1-1.045-3.882,7.521,7.521,0,0,1-4.987-3.2c-1.7-2.509-2.9-7.138-1.4-10.632.119-.269.687-.836.776-1.254.179-.836-.329-1.941-.358-2.837-.149-4.569.776-8.511,3.852-9.885,1.254-4.987,5.734-6.63,9.945-9.108a31.275,31.275,0,0,1,5.107-2.18C58.56-.629,68.445-.181,73.79,3.85c2.27,1.7,5.883,5.316,7.167,7.944,3.434,6.9,3.166,18.456.776,26.877A27.63,27.63,0,0,1,80.3,42.822c-.448.956-1.852,2.837-1.7,3.673.179.866,3.225,3.166,3.882,3.793,1.165,1.135,3.4,2.628,3.584,4.062.209,1.523-.657,3.613-1.1,5.077-1.434,4.9-2.867,9.407-4.509,13.8Z" transform="translate(-18.426 0)"/><path class="h" d="M127.873,129.125c.179-.239,1.195-.627,2.628.06,0,0-1.7.269-1.553,3.106l-.717-.149c.03.03-.717-2.538-.358-3.016" transform="translate(-88.694 -89.826)"/><path class="m" d="M165.572,208.653a.776.776,0,1,1-.777-.776.771.771,0,0,1,.777.776" transform="translate(-114.03 -145.105)"/><path class="m" d="M168.151,220.659a.776.776,0,1,1-.776-.777.753.753,0,0,1,.776.777" transform="translate(-115.833 -153.497)"/><g transform="translate(0.923 110.882)"><path class="c" d="M10.721,5.41q-.358.045-.627.09c-.179.03-.358.06-.6.119a.573.573,0,0,0-.478.358,1.767,1.767,0,0,0-.119.6v7.287a4.312,4.312,0,0,1-.418,1.852,3.918,3.918,0,0,1-1.1,1.4,5.178,5.178,0,0,1-1.613.836,6.525,6.525,0,0,1-1.881.3,4.365,4.365,0,0,1-2.807-.836A2.753,2.753,0,0,1,0,15.116a2.133,2.133,0,0,1,.478-1.433,1.657,1.657,0,0,1,1.344-.567,1.712,1.712,0,0,1,1.284.478,1.578,1.578,0,0,1,.478,1.165,1.757,1.757,0,0,1-.418,1.1,5.626,5.626,0,0,1-.956.926v.119a.778.778,0,0,0,.358.329,1.294,1.294,0,0,0,.567.119A2.117,2.117,0,0,0,4.9,16.549a3.9,3.9,0,0,0,.627-2.419V6.664a1.616,1.616,0,0,0-.09-.567c-.06-.149-.239-.269-.508-.388A3.134,3.134,0,0,0,4.241,5.5c-.269-.06-.478-.09-.657-.119V4.664h7.048V5.41Z" transform="translate(0 -3.439)"/><path class="c" d="M49.376,24.423a6.113,6.113,0,0,1-.776,1.015,4.646,4.646,0,0,1-1.045.806,5.671,5.671,0,0,1-1.254.538,5.453,5.453,0,0,1-1.463.179,6.467,6.467,0,0,1-2.389-.388,4.566,4.566,0,0,1-1.642-1.045,4.444,4.444,0,0,1-.986-1.553,5.884,5.884,0,0,1-.328-1.941,4.718,4.718,0,0,1,.358-1.822,5.278,5.278,0,0,1,.985-1.553,4.493,4.493,0,0,1,1.613-1.075,5.631,5.631,0,0,1,2.15-.418,6.261,6.261,0,0,1,2.15.329,3.734,3.734,0,0,1,1.374.866,3.411,3.411,0,0,1,.776,1.254,5.082,5.082,0,0,1,.239,1.523v.6h-6.3a4.66,4.66,0,0,0,.747,2.9,2.722,2.722,0,0,0,2.329.985,2.676,2.676,0,0,0,1.583-.478,4.247,4.247,0,0,0,1.195-1.224l.687.508Zm-3.554-3.554c0-.358-.03-.747-.06-1.135a2.668,2.668,0,0,0-.209-.956,1.356,1.356,0,0,0-.448-.657,1.047,1.047,0,0,0-.687-.209,1.259,1.259,0,0,0-1.135.717,4.807,4.807,0,0,0-.478,2.3l3.016-.06Z" transform="translate(-27.606 -12.179)"/><path class="c" d="M87.169,26.494H81.555v-.687a2.341,2.341,0,0,0,.418-.06,2.562,2.562,0,0,0,.388-.09.655.655,0,0,0,.269-.3,1.406,1.406,0,0,0,.09-.567v-4.36A2.417,2.417,0,0,0,82.361,19a1.178,1.178,0,0,0-1.045-.478,1.753,1.753,0,0,0-.687.119,2.116,2.116,0,0,0-.627.329,1.908,1.908,0,0,0-.448.388,1.4,1.4,0,0,0-.269.358V24.7a1.446,1.446,0,0,0,.09.538.647.647,0,0,0,.3.329,1,1,0,0,0,.358.149l.448.09v.687H74.806v-.687a2.975,2.975,0,0,0,.478-.06c.149-.03.3-.06.418-.09a.679.679,0,0,0,.418-.329,1.458,1.458,0,0,0,.119-.567V19.327a1.34,1.34,0,0,0-.149-.567,1.406,1.406,0,0,0-.388-.448,1.355,1.355,0,0,0-.418-.179,1.739,1.739,0,0,0-.567-.09v-.687l4.45-.239.149.149V18.61h.03c.179-.149.388-.329.627-.567.239-.209.478-.388.687-.538a4.234,4.234,0,0,1,.9-.388,3.857,3.857,0,0,1,1.195-.149,2.882,2.882,0,0,1,2.27.866,3.332,3.332,0,0,1,.746,2.3V24.7a1.25,1.25,0,0,0,.09.538.723.723,0,0,0,.388.329,2.5,2.5,0,0,0,.358.119c.149.03.3.06.508.09v.717Z" transform="translate(-52.229 -12.04)"/><path class="c" d="M129.836,15.049h-4.39c-.538-.956-1.045-1.762-1.493-2.419s-.866-1.284-1.254-1.822l-.538.478v2.031a1.34,1.34,0,0,0,.09.538.626.626,0,0,0,.388.328,1.473,1.473,0,0,0,.388.119,2.308,2.308,0,0,0,.448.06v.687h-5.794v-.687a2.98,2.98,0,0,0,.478-.06c.149-.03.3-.06.418-.09a.678.678,0,0,0,.418-.329,1.455,1.455,0,0,0,.119-.567V2.925a1.6,1.6,0,0,0-.149-.627,1.109,1.109,0,0,0-.388-.508,1.6,1.6,0,0,0-.538-.179,2.663,2.663,0,0,0-.657-.09V.834L122.012.6l.149.149v9.616c.448-.418.985-.9,1.553-1.433s1.045-.985,1.374-1.344c.209-.209.328-.358.328-.478a.782.782,0,0,0,.03-.209c0-.119-.09-.209-.3-.269a5.774,5.774,0,0,0-.9-.209V5.762h4.718v.657a11.286,11.286,0,0,0-1.434.478,10.215,10.215,0,0,0-1.075.6c-.269.179-.508.358-.746.538s-.508.418-.836.687c.6.9,1.165,1.7,1.673,2.449s1.045,1.553,1.613,2.389a1.394,1.394,0,0,0,.717.6,4.467,4.467,0,0,0,.866.179v.717Z" transform="translate(-82.054 -0.595)"/><path class="c" d="M164.386,15.119H158.5v-.687a2.613,2.613,0,0,0,.478-.06,3.906,3.906,0,0,0,.388-.09.679.679,0,0,0,.418-.329,1.067,1.067,0,0,0,.119-.567V7.951a1.146,1.146,0,0,0-.149-.567A.909.909,0,0,0,159.4,7a2.169,2.169,0,0,0-.508-.209,2.851,2.851,0,0,0-.627-.119V5.98l4.569-.239.149.149V13.3a1.238,1.238,0,0,0,.149.567.827.827,0,0,0,.388.329,1.728,1.728,0,0,0,.418.149c.149.03.3.06.478.09v.687ZM163.042,2.427a1.547,1.547,0,0,1-.538,1.195,1.884,1.884,0,0,1-1.284.508,1.958,1.958,0,0,1-1.314-.508,1.591,1.591,0,0,1-.538-1.195,1.654,1.654,0,0,1,.538-1.224A1.9,1.9,0,0,1,161.22.695,1.83,1.83,0,0,1,162.5,1.2a1.608,1.608,0,0,1,.538,1.224Z" transform="translate(-110.631 -0.665)"/><path class="c" d="M193.439,26.494h-5.614v-.687a2.344,2.344,0,0,0,.418-.06,2.567,2.567,0,0,0,.388-.09.654.654,0,0,0,.269-.3,1.406,1.406,0,0,0,.089-.567v-4.36A2.42,2.42,0,0,0,188.631,19a1.178,1.178,0,0,0-1.045-.478,1.752,1.752,0,0,0-.687.119,3.158,3.158,0,0,0-.627.329,1.906,1.906,0,0,0-.448.388,1.414,1.414,0,0,0-.269.358V24.7a1.449,1.449,0,0,0,.09.538.648.648,0,0,0,.3.329,1,1,0,0,0,.358.149l.448.09v.687h-5.674v-.687a2.973,2.973,0,0,0,.478-.06c.149-.03.3-.06.418-.09a.679.679,0,0,0,.418-.329,1.46,1.46,0,0,0,.119-.567V19.327a1.339,1.339,0,0,0-.15-.567,1.4,1.4,0,0,0-.388-.448,1.35,1.35,0,0,0-.418-.179,1.738,1.738,0,0,0-.567-.09v-.687l4.45-.239.149.149V18.61h.03c.179-.149.388-.329.627-.567.239-.209.478-.388.687-.538a4.234,4.234,0,0,1,.9-.388,3.855,3.855,0,0,1,1.195-.149,2.882,2.882,0,0,1,2.27.866,3.333,3.333,0,0,1,.746,2.3V24.7a1.245,1.245,0,0,0,.09.538.72.72,0,0,0,.388.329,2.485,2.485,0,0,0,.358.119c.149.03.3.06.507.09v.717Z" transform="translate(-126.515 -12.04)"/><path class="c" d="M229.749,26.961a6.548,6.548,0,0,1-3.106-.836l-.269.627h-.717l-.119-3.464h.687a4.046,4.046,0,0,0,.478.956,5.853,5.853,0,0,0,.746.956,5.149,5.149,0,0,0,1.015.717,2.825,2.825,0,0,0,1.195.3,2.033,2.033,0,0,0,1.254-.329,1.241,1.241,0,0,0,.418-1.015,1.1,1.1,0,0,0-.179-.627,1.81,1.81,0,0,0-.508-.418,5.02,5.02,0,0,0-.806-.329c-.3-.09-.657-.179-1.075-.328a6.327,6.327,0,0,1-1.075-.388,3.239,3.239,0,0,1-.926-.6,2.666,2.666,0,0,1-.657-.866,2.565,2.565,0,0,1-.239-1.224,2.493,2.493,0,0,1,1.105-2.12,4.82,4.82,0,0,1,2.9-.806,6.331,6.331,0,0,1,1.553.179,7.014,7.014,0,0,1,1.195.388l.209-.538h.717l.149,3.166h-.657a3.912,3.912,0,0,0-1.1-1.672,2.533,2.533,0,0,0-1.7-.717,1.83,1.83,0,0,0-1.135.3,1.006,1.006,0,0,0-.418.836,1.07,1.07,0,0,0,.6,1.015,7.486,7.486,0,0,0,1.672.6,6.035,6.035,0,0,1,2.449,1.165,2.569,2.569,0,0,1,.777,1.881,2.667,2.667,0,0,1-1.195,2.359,6.089,6.089,0,0,1-3.225.836Z" transform="translate(-157.658 -12.179)"/></g></g></svg>