<svg xmlns="http://www.w3.org/2000/svg" width="51.813" height="47.141" viewBox="0 0 51.813 47.141"><defs><style>.a{fill:#a13d63;stroke:#a13d63;stroke-width:0.4px;}</style></defs><g transform="translate(-6.8 0.211)"><g transform="translate(7.01 32.711)"><g transform="translate(0 0)"><path class="a" d="M135.01,304a7.01,7.01,0,1,0,7.01,7.01A7.017,7.017,0,0,0,135.01,304Zm0,11.683a4.673,4.673,0,1,1,4.673-4.673A4.678,4.678,0,0,1,135.01,315.683Z" transform="translate(-128 -304)"/></g></g><g transform="translate(7.01)"><g transform="translate(0)"><path class="a" d="M135.01,80a7.01,7.01,0,1,0,7.01,7.009A7.017,7.017,0,0,0,135.01,80Zm0,11.683a4.673,4.673,0,1,1,4.673-4.673A4.678,4.678,0,0,1,135.01,91.683Z" transform="translate(-128 -80)"/></g></g><g transform="translate(25.702 16.356)"><g transform="translate(0)"><path class="a" d="M263.01,192a7.01,7.01,0,1,0,7.01,7.009A7.017,7.017,0,0,0,263.01,192Zm0,11.683a4.673,4.673,0,1,1,4.673-4.673A4.678,4.678,0,0,1,263.01,203.683Z" transform="translate(-256 -192)"/></g></g><g transform="translate(25.702 32.711)"><g transform="translate(0 0)"><path class="a" d="M263.01,304a7.01,7.01,0,1,0,7.01,7.01A7.017,7.017,0,0,0,263.01,304Zm0,11.683a4.673,4.673,0,1,1,4.673-4.673A4.678,4.678,0,0,1,263.01,315.683Z" transform="translate(-256 -304)"/></g></g><g transform="translate(0)"><path class="a" d="M67.783,105.482V81.168A1.168,1.168,0,0,0,66.141,80.1L55.626,84.773a1.168,1.168,0,0,0,0,2.136l9.82,4.365v13.365a6.883,6.883,0,0,0-5.127,1.126L51.626,90.55a7.009,7.009,0,1,0-12.256-.315l-9.036,7.028A6.994,6.994,0,0,0,19.99,102.2a6.024,6.024,0,0,0,0,2.336,7.005,7.005,0,1,0,12.2-5.751L40.781,92.1a6.979,6.979,0,0,0,9.232.34l8.577,15.011.015-.009a7.008,7.008,0,1,0,9.178-1.958Zm-40.889,2.556a4.673,4.673,0,1,1,4.673-4.673A4.678,4.678,0,0,1,26.894,108.038ZM45.586,91.683a4.673,4.673,0,1,1,4.673-4.673A4.678,4.678,0,0,1,45.586,91.683Zm13.391-5.841,6.47-2.875v5.75Zm5.3,30.375a4.673,4.673,0,1,1,0-9.346,4.6,4.6,0,0,1,1.168.166v4.507h2.337v-3.058a4.629,4.629,0,0,1,1.168,3.058A4.678,4.678,0,0,1,64.279,116.216Z" transform="translate(-12.875 -80)"/></g><g transform="translate(46.088 41.08)"><g transform="translate(0 0)"><rect class="a" width="2" height="2" rx="1" transform="translate(0.324 -0.08)"/></g></g><g transform="translate(50.197 41.08)"><g transform="translate(0 0)"><rect class="a" width="3" height="2" rx="1" transform="translate(0.216 -0.08)"/></g></g><g transform="translate(55.332 41.08)"><g transform="translate(0 0)"><rect class="a" width="2" height="2" rx="1" transform="translate(0.081 -0.08)"/></g></g></g></svg>