<svg xmlns="http://www.w3.org/2000/svg" width="55.097" height="51.639" viewBox="0 0 55.097 51.639"><defs><style>.a{fill:#6fa1db;}</style></defs><g transform="translate(0 0)"><path class="a" d="M291.427,288.52h-8.645a1.614,1.614,0,0,0-1.614,1.614v8.718a1.614,1.614,0,0,0,1.614,1.614h8.645a1.614,1.614,0,0,0,1.614-1.614v-8.718A1.614,1.614,0,0,0,291.427,288.52Zm-1.614,8.718H284.4v-5.49h5.416Zm0,0" transform="translate(-250.911 -257.472)"/><path class="a" d="M55.035,13.274l-2.27-7.946A7.673,7.673,0,0,0,45.7,0H9.4A7.673,7.673,0,0,0,2.333,5.328L.063,13.274A1.614,1.614,0,0,0,0,13.717V18.9a6.811,6.811,0,0,0,4.323,6.332V45.7A5.943,5.943,0,0,0,10.26,51.64H44.839A5.944,5.944,0,0,0,50.776,45.7V25.236A6.811,6.811,0,0,0,55.1,18.9V13.717a1.614,1.614,0,0,0-.062-.443Zm-49.6-7.06A4.486,4.486,0,0,1,9.4,3.229H45.7a4.486,4.486,0,0,1,3.958,2.986L51.343,12.1H3.755ZM13.6,15.332h7.146V18.9a3.573,3.573,0,1,1-7.146,0Zm10.374,0h7.145V18.9a3.573,3.573,0,1,1-7.145,0Zm10.374,0H41.5V18.9a3.573,3.573,0,1,1-7.145,0ZM3.229,18.9V15.332h7.145V18.9a3.573,3.573,0,1,1-7.145,0ZM16.2,48.411V38.672h5.417v9.739Zm28.643,0h-20V37.058a1.615,1.615,0,0,0-1.614-1.614H14.582a1.615,1.615,0,0,0-1.614,1.614V48.411H10.26A2.711,2.711,0,0,1,7.551,45.7V25.663A6.793,6.793,0,0,0,11.988,23.3a6.789,6.789,0,0,0,10.374,0,6.788,6.788,0,0,0,10.374,0,6.788,6.788,0,0,0,10.374,0,6.8,6.8,0,0,0,4.437,2.367V45.7a2.711,2.711,0,0,1-2.708,2.708ZM48.3,22.477A3.577,3.577,0,0,1,44.724,18.9V15.332h7.145V18.9A3.577,3.577,0,0,1,48.3,22.477Zm0,0"/></g></svg>