<svg xmlns="http://www.w3.org/2000/svg" width="48.079" height="54.677" viewBox="0 0 48.079 54.677"><defs><style>.a,.b{fill:#f7a278;stroke:#f7a278;stroke-linecap:round;}.a{stroke-width:0.5px;}.b{stroke-width:0.8px;}</style></defs><g transform="translate(-17.395 0.483)"><g transform="translate(17.776)"><g transform="translate(0)"><path class="a" d="M65.224.016,60.166,3.8,55.08,15.661H50.99l-1.606-3.48h1.049a3.47,3.47,0,0,0,3.48-3.464V5.22h1.74V0h-5.22V5.22h1.74v3.5a1.728,1.728,0,0,1-1.74,1.724H48.581L46.357,5.629,49.021,4.3,40.3.565,38.247,7.743A7.828,7.828,0,1,0,26.071,14.35v1.311H23.964l-.136.713a19.581,19.581,0,0,0-.117,6.7L17.776,33.65l6.555,1.5V46.113h8.7v7.83H53.913V41.819a22.676,22.676,0,0,0,9.564-18.626l0-3.174a20.209,20.209,0,0,0-.333-3.637l-.129-.721H61.308l3.915-9.38V.016ZM52.173,3.5V1.757h1.74V3.5Zm-3.1,12.164h-3.3l-1.582-3.48h3.276ZM41.427,2.945l3.459,1.482-.816.4,2.595,5.614H43.4L41.28,5.787,40.5,6.18Zm2.434,12.716H39.992V13.938a1.756,1.756,0,0,1,1.74-1.757h.547Zm-3.417-7.5L41.5,10.481a3.473,3.473,0,0,0-3.248,3.457v1.724h-3.48V14.35a7.862,7.862,0,0,0,3.321-5.016ZM24.331,7.847a6.09,6.09,0,1,1,9.135,5.269l-.434.25v2.294h-1.74V10.3a2.61,2.61,0,1,0-1.74,0v5.365h-1.74V13.367l-.434-.251A6.112,6.112,0,0,1,24.331,7.847Zm6.09.87a.87.87,0,1,1,.87-.87A.871.871,0,0,1,30.422,8.717ZM61.552,17.4a18.278,18.278,0,0,1,.19,2.61l0,3.18A21.185,21.185,0,0,1,52.556,40.65l-.383.261V52.2h-17.4v-7.83h-8.7V33.76l-5.639-1.287,5.093-9.081-.05-.311a17.95,17.95,0,0,1-.061-5.681H61.552Zm-2.129-1.74H56.972L61.309,5.549l1.929.961ZM63.484,4.7l-.962-.481.962-.72Z" transform="translate(-17.776)"/><path class="b" d="M77.05,112.134a2.44,2.44,0,0,1-2.61-2.61H72.7a4.35,4.35,0,0,0,8.7,0h-1.74A2.44,2.44,0,0,1,77.05,112.134Z" transform="translate(-62.665 -89.513)"/></g></g></g></svg>