<svg xmlns="http://www.w3.org/2000/svg" width="65.367" height="65.984" viewBox="0 0 65.367 65.984"><defs><style>.a{fill:#fe3232;}.b{fill:#e1e4fb;}</style></defs><g transform="translate(0 -29.569)"><path class="a" d="M64.021,79.013,40.927,34.907a9.4,9.4,0,0,0-8.243-5.338,9.4,9.4,0,0,0-8.243,5.338L1.347,79.013A12.272,12.272,0,0,0,1.271,90.04a9.327,9.327,0,0,0,8.32,5.513H55.777A9.327,9.327,0,0,0,64.1,90.04,12.271,12.271,0,0,0,64.021,79.013Z" transform="translate(0 0)"/><path class="b" d="M234.72,126.44v17.5a4.376,4.376,0,0,1-8.751,0v-17.5a4.376,4.376,0,1,1,8.751,0Z" transform="translate(-197.661 -79.018)"/><path class="b" d="M217.517,332.278a6.563,6.563,0,1,0,6.563,6.563A6.554,6.554,0,0,0,217.517,332.278Z" transform="translate(-184.833 -258.603)"/></g></svg>