<svg xmlns="http://www.w3.org/2000/svg" width="51.477" height="54.812" viewBox="0 0 51.477 54.812"><defs><style>.a{fill:#234698;stroke:#234698;stroke-width:0.4px;}</style></defs><g transform="translate(-15.501 0.2)"><g transform="translate(27.386 29.001)"><path class="a" d="M135.257,277.235H132.07v-3.187a1.062,1.062,0,1,0-2.125,0v3.187h-3.187a1.062,1.062,0,1,0,0,2.125h3.187v3.187a1.062,1.062,0,1,0,2.125,0V279.36h3.187a1.062,1.062,0,1,0,0-2.125Z" transform="translate(-125.696 -272.986)"/></g><g transform="translate(15.701)"><path class="a" d="M65.619,34.206A8.494,8.494,0,0,0,54.01,31.1l-4.315,2.491V24.362a5.35,5.35,0,0,0-1.062-3.187l-5.311-7.082V11.078a3.192,3.192,0,0,0,2.125-3V3.187A3.191,3.191,0,0,0,42.259,0H23.137A3.191,3.191,0,0,0,19.95,3.187V8.073a3.192,3.192,0,0,0,2.125,3v3.016l-5.312,7.082A5.349,5.349,0,0,0,15.7,24.362V44.935a5.317,5.317,0,0,0,5.311,5.311H38.085a8.49,8.49,0,0,0,11.544,3l12.88-7.436A8.5,8.5,0,0,0,65.619,34.206ZM22.075,3.187a1.064,1.064,0,0,1,1.062-1.062H42.258a1.064,1.064,0,0,1,1.062,1.062V8.073a1.063,1.063,0,0,1-1.062,1.062H23.137a1.063,1.063,0,0,1-1.062-1.062V3.187ZM18.463,22.45l5.524-7.365a1.062,1.062,0,0,0,.212-.637V11.26h17v2.125H23.636a1.062,1.062,0,1,0,0,2.125H41.727l5.2,6.94a3.215,3.215,0,0,1,.615,1.559h-29.7A3.213,3.213,0,0,1,18.463,22.45Zm2.549,25.673a3.19,3.19,0,0,1-3.187-3.187V43.862h19.3a8.512,8.512,0,0,0,.051,4.26H21.013Zm16.947-6.374H17.826V26.133H47.57v8.681l-6.44,3.718A8.435,8.435,0,0,0,37.959,41.748Zm10.607,9.663a6.374,6.374,0,1,1-6.374-11.039l5.766-3.329,6.374,11.039Zm12.879-7.436L56.173,47.02,49.8,35.98l5.273-3.044a6.374,6.374,0,1,1,6.374,11.039Z" transform="translate(-15.701)"/></g></g></svg>