<svg xmlns="http://www.w3.org/2000/svg" width="21.2" height="22.556" viewBox="0 0 21.2 22.556"><g transform="translate(0 0)"><path d="M14.671,7.213a.94.94,0,0,1,1.329,0L27.3,18.575a3.759,3.759,0,0,0,5.315-5.318L20.981,1.564a2.349,2.349,0,0,0-3.32,3.325L27.3,14.525l0,0A.939.939,0,0,0,28.625,13.2L23.974,8.544A.94.94,0,0,1,25.3,7.215l4.651,4.652a2.819,2.819,0,0,1-3.987,3.987l0,0L16.331,6.217A4.229,4.229,0,0,1,22.311.236L33.944,11.93A5.639,5.639,0,0,1,25.967,19.9L14.667,8.542A.94.94,0,0,1,14.671,7.213Z" transform="translate(-14.394 1.002)"/></g></svg>