<svg xmlns="http://www.w3.org/2000/svg" xmlns:xlink="http://www.w3.org/1999/xlink" width="106" height="128" viewBox="0 0 106 128"><defs><style>.a{fill:none;stroke:#707070;}.b{clip-path:url(#a);}.c{fill:url(#b);}.d{fill:url(#c);}</style><clipPath id="a"><rect class="a" width="106" height="128" transform="translate(596 5731)"/></clipPath><linearGradient id="b" x1="0.991" y1="1.127" x2="0.339" y2="0.378" gradientUnits="objectBoundingBox"><stop offset="0.18" stop-color="#0052cc"/><stop offset="1" stop-color="#2684ff"/></linearGradient><linearGradient id="c" x1="0.009" y1="-0.126" x2="0.662" y2="0.623" xlink:href="#b"/></defs><g class="b" transform="translate(-596 -5731)"><g transform="translate(612.547 5737.972)"><path class="c" d="M2.644,69.4c-.754,1.23-1.6,2.656-2.32,3.793A2.32,2.32,0,0,0,1.1,76.351l15.08,9.28a2.32,2.32,0,0,0,3.213-.789c.6-1.009,1.38-2.32,2.227-3.724,5.974-9.86,11.983-8.654,22.818-3.48L59.392,84.75a2.32,2.32,0,0,0,3.121-1.16l7.18-16.24a2.32,2.32,0,0,0-1.16-3.039c-3.155-1.485-9.431-4.443-15.08-7.169C33.129,47.269,15.856,47.908,2.644,69.4Z" transform="translate(0 -15.922)"/><path class="d" d="M71.612,16.624c.754-1.23,1.6-2.656,2.32-3.793a2.32,2.32,0,0,0-.777-3.155L58.074.4a2.32,2.32,0,0,0-3.306.766c-.6,1.009-1.38,2.32-2.227,3.724-5.974,9.86-11.983,8.654-22.818,3.48L14.817,1.289a2.32,2.32,0,0,0-3.12,1.16L4.516,18.689a2.32,2.32,0,0,0,1.16,3.039c3.155,1.485,9.431,4.443,15.08,7.169C41.126,38.758,58.4,38.1,71.612,16.624Z" transform="translate(-1.349 0)"/></g></g></svg>