<?xml version="1.0" encoding="utf-8"?>
<!-- Generator: Adobe Illustrator 22.0.0, SVG Export Plug-In . SVG Version: 6.00 Build 0)  -->
<svg version="1.1" id="Layer_1" xmlns="http://www.w3.org/2000/svg" xmlns:xlink="http://www.w3.org/1999/xlink" x="0px" y="0px"
	 viewBox="0 0 16 16" style="enable-background:new 0 0 16 16;" xml:space="preserve">
<style type="text/css">
	.st0{fill:#EB3B2E;}
</style>
<g>
	<path class="st0" d="M2.1,5.9C0.9,5.9,0,6.7,0,8.1c0,1.3,0.9,2.2,2.3,2.2c1,0,1.7-0.6,1.7-0.6L3.6,9.1c0,0-0.5,0.5-1.3,0.5
		c-0.8,0-1.4-0.5-1.5-1.4H4c0,0,0-0.2,0-0.4C4,6.7,3.3,5.9,2.1,5.9z M0.9,7.6C1,6.9,1.5,6.5,2.1,6.5c0.5,0,1,0.4,1,1.1H0.9z"/>
	<rect x="4.9" y="3.1" class="st0" width="0.8" height="9.7"/>
	<rect x="7.2" y="4.8" class="st0" width="0.8" height="5.5"/>
	<path class="st0" d="M10.3,8.6V6.7h1V6.1h-1V4.9H9.5v1.2H8.9v0.7h0.6v2c0,1.4,1.1,1.6,1.6,1.6c0.2,0,0.3,0,0.3,0V9.6
		c0,0-0.1,0-0.2,0C10.9,9.6,10.3,9.5,10.3,8.6z"/>
	<path class="st0" d="M16,7.9c0-1.1-0.6-2-1.8-2c-1.2,0-2.1,0.9-2.1,2.2c0,1.3,0.9,2.2,2.3,2.2c1,0,1.7-0.6,1.7-0.6l-0.3-0.6
		c0,0-0.5,0.5-1.3,0.5c-0.8,0-1.4-0.5-1.5-1.4H16C16,8.2,16,8,16,7.9z M12.9,7.6c0.1-0.7,0.6-1.1,1.2-1.1c0.5,0,1,0.4,1,1.1H12.9z"
		/>
	<circle class="st0" cx="7.6" cy="3.5" r="0.4"/>
</g>
</svg>
