<svg xmlns="http://www.w3.org/2000/svg" width="67.8" height="79.619" viewBox="0 0 67.8 79.619"><defs><style>.a{fill:#c13939;}</style></defs><g transform="translate(0 0.001)"><path class="a" d="M67.721,21.6l0-.062c-.035-.765-.058-1.574-.072-2.474A8.438,8.438,0,0,0,59.7,10.8c-9.154-.511-16.236-3.5-22.286-9.394l-.052-.049a5.1,5.1,0,0,0-6.925,0l-.052.049C24.336,7.3,17.255,10.288,8.1,10.8A8.438,8.438,0,0,0,.155,19.066c-.013.894-.037,1.7-.072,2.474l0,.144c-.178,9.335-.4,20.952,3.487,31.5a40.094,40.094,0,0,0,9.619,14.983A50.318,50.318,0,0,0,32.009,79.3a5.83,5.83,0,0,0,.771.21,5.7,5.7,0,0,0,2.24,0A5.848,5.848,0,0,0,35.8,79.3a50.351,50.351,0,0,0,18.8-11.14,40.151,40.151,0,0,0,9.619-14.986C68.119,42.593,67.9,30.954,67.721,21.6ZM59.835,51.553C55.736,62.667,47.368,70.3,34.254,74.885a1.173,1.173,0,0,1-.148.04,1.048,1.048,0,0,1-.411,0,1.164,1.164,0,0,1-.147-.039c-13.128-4.578-21.5-12.206-25.6-23.32-3.582-9.72-3.379-20.384-3.2-29.792v-.052c.036-.809.061-1.655.074-2.586a3.75,3.75,0,0,1,3.535-3.671A40.99,40.99,0,0,0,22.274,12.4,36.4,36.4,0,0,0,33.612,4.786a.431.431,0,0,1,.578,0A36.414,36.414,0,0,0,45.528,12.4a40.992,40.992,0,0,0,13.914,3.06,3.75,3.75,0,0,1,3.534,3.671c.014.935.038,1.782.075,2.585C63.229,31.14,63.427,41.813,59.835,51.553Zm0,0" transform="translate(0)"/><path class="a" d="M110.241,128.41a19.842,19.842,0,1,0,19.842,19.842A19.865,19.865,0,0,0,110.241,128.41Zm0,35.013a15.17,15.17,0,1,1,15.17-15.17A15.187,15.187,0,0,1,110.241,163.423Zm0,0" transform="translate(-76.341 -108.442)"/><path class="a" d="M169.378,212.676l-9.216,9.216-2.5-2.5a2.336,2.336,0,0,0-3.3,3.3l4.154,4.154a2.336,2.336,0,0,0,3.3,0l10.868-10.868a2.336,2.336,0,0,0-3.3-3.3Zm0,0" transform="translate(-129.776 -179.026)"/></g></svg>